%TF.GenerationSoftware,KiCad,Pcbnew,10.0.5*%
%TF.CreationDate,2026-09-25T11:20:25+00:00*%
%TF.ProjectId,unoq-power-shield,756e6f71-2d70-46f7-9765-722d73686965,1*%
%TF.SameCoordinates,Original*%
%TF.FileFunction,Paste,Top*%
%TF.FilePolarity,Positive*%
%FSLAX46Y46*%
G04 Gerber Fmt 4.6, Leading zero omitted, Abs format (unit mm)*
G04 Created by KiCad (PCBNEW 10.0.5) date 2026-09-25 11:20:25*
%MOMM*%
%LPD*%
G01*
G04 APERTURE LIST*
G04 Aperture macros list*
%AMRoundRect*
0 Rectangle with rounded corners*
0 $1 Rounding radius*
0 $2 $3 $4 $5 $6 $7 $8 $9 X,Y pos of 4 corners*
0 Add a 4 corners polygon primitive as box body*
4,1,4,$2,$3,$4,$5,$6,$7,$8,$9,$2,$3,0*
0 Add four circle primitives for the rounded corners*
1,1,$1+$1,$2,$3*
1,1,$1+$1,$4,$5*
1,1,$1+$1,$6,$7*
1,1,$1+$1,$8,$9*
0 Add four rect primitives between the rounded corners*
20,1,$1+$1,$2,$3,$4,$5,0*
20,1,$1+$1,$4,$5,$6,$7,0*
20,1,$1+$1,$6,$7,$8,$9,0*
20,1,$1+$1,$8,$9,$2,$3,0*%
G04 Aperture macros list end*
%ADD10RoundRect,0.150000X-0.587500X-0.150000X0.587500X-0.150000X0.587500X0.150000X-0.587500X0.150000X0*%
%ADD11RoundRect,0.200000X-0.200000X-0.275000X0.200000X-0.275000X0.200000X0.275000X-0.200000X0.275000X0*%
%ADD12RoundRect,0.250000X0.650000X-0.325000X0.650000X0.325000X-0.650000X0.325000X-0.650000X-0.325000X0*%
%ADD13RoundRect,0.225000X-0.225000X-0.250000X0.225000X-0.250000X0.225000X0.250000X-0.225000X0.250000X0*%
%ADD14RoundRect,0.150000X-0.625000X0.150000X-0.625000X-0.150000X0.625000X-0.150000X0.625000X0.150000X0*%
%ADD15RoundRect,0.250000X-0.650000X0.350000X-0.650000X-0.350000X0.650000X-0.350000X0.650000X0.350000X0*%
%ADD16R,1.910000X0.610000*%
%ADD17R,0.723000X0.930000*%
%ADD18RoundRect,0.250000X-1.000000X-0.650000X1.000000X-0.650000X1.000000X0.650000X-1.000000X0.650000X0*%
%ADD19RoundRect,0.250000X1.425000X-0.362500X1.425000X0.362500X-1.425000X0.362500X-1.425000X-0.362500X0*%
%ADD20RoundRect,0.150000X0.150000X0.625000X-0.150000X0.625000X-0.150000X-0.625000X0.150000X-0.625000X0*%
%ADD21RoundRect,0.250000X0.350000X0.650000X-0.350000X0.650000X-0.350000X-0.650000X0.350000X-0.650000X0*%
%ADD22R,0.450000X0.650000*%
%ADD23R,1.700000X2.800000*%
%ADD24RoundRect,0.250000X-0.325000X-0.650000X0.325000X-0.650000X0.325000X0.650000X-0.325000X0.650000X0*%
%ADD25RoundRect,0.087500X-0.662500X-0.087500X0.662500X-0.087500X0.662500X0.087500X-0.662500X0.087500X0*%
%ADD26RoundRect,0.150000X-0.825000X-0.150000X0.825000X-0.150000X0.825000X0.150000X-0.825000X0.150000X0*%
%ADD27RoundRect,0.225000X-0.225000X-0.375000X0.225000X-0.375000X0.225000X0.375000X-0.225000X0.375000X0*%
G04 APERTURE END LIST*
D10*
%TO.C,Q3*%
X38612500Y24000000D03*
X38612500Y22100000D03*
X40487500Y23050000D03*
%TD*%
D11*
%TO.C,R11*%
X42725000Y29050000D03*
X44375000Y29050000D03*
%TD*%
D12*
%TO.C,C8*%
X35050000Y16575000D03*
X35050000Y19525000D03*
%TD*%
D13*
%TO.C,C3*%
X24775000Y28550000D03*
X26325000Y28550000D03*
%TD*%
D14*
%TO.C,J3*%
X5650000Y48050000D03*
X5650000Y47050000D03*
X5650000Y46050000D03*
X5650000Y45050000D03*
D15*
X1775000Y49350000D03*
X1775000Y43750000D03*
%TD*%
D16*
%TO.C,U1*%
X17270000Y23955000D03*
X17270000Y22685000D03*
X17270000Y21415000D03*
X17270000Y20145000D03*
X22830000Y20145000D03*
X22830000Y21415000D03*
X22830000Y22685000D03*
X22830000Y23955000D03*
D17*
X19447500Y22825000D03*
X19447500Y21275000D03*
X20652500Y22825000D03*
X20652500Y21275000D03*
%TD*%
D11*
%TO.C,R3*%
X13050000Y19225000D03*
X13050000Y20875000D03*
%TD*%
D18*
%TO.C,D1*%
X24050000Y26550000D03*
X28050000Y26550000D03*
%TD*%
D11*
%TO.C,R14*%
X46225000Y23050000D03*
X47875000Y23050000D03*
%TD*%
%TO.C,R15*%
X46225000Y29050000D03*
X47875000Y29050000D03*
%TD*%
%TO.C,R18*%
X46225000Y38050000D03*
X47875000Y38050000D03*
%TD*%
D12*
%TO.C,C9*%
X35050000Y24575000D03*
X35050000Y27525000D03*
%TD*%
D11*
%TO.C,R6*%
X22550000Y18375000D03*
X22550000Y16725000D03*
%TD*%
%TO.C,R19*%
X46225000Y40550000D03*
X47875000Y40550000D03*
%TD*%
D10*
%TO.C,Q4*%
X38612500Y30000000D03*
X38612500Y28100000D03*
X40487500Y29050000D03*
%TD*%
D11*
%TO.C,R10*%
X42725000Y23050000D03*
X44375000Y23050000D03*
%TD*%
D19*
%TO.C,R1*%
X7050000Y16587500D03*
X7050000Y22512500D03*
%TD*%
D10*
%TO.C,Q1*%
X38612500Y12000000D03*
X38612500Y10100000D03*
X40487500Y11050000D03*
%TD*%
D20*
%TO.C,J4*%
X43050000Y1250000D03*
X42050000Y1250000D03*
X41050000Y1250000D03*
X40050000Y1250000D03*
D21*
X44350000Y5125000D03*
X38750000Y5125000D03*
%TD*%
D22*
%TO.C,D3*%
X42425000Y38525000D03*
X42425000Y37575000D03*
X43675000Y38525000D03*
X43675000Y37575000D03*
%TD*%
D23*
%TO.C,L1*%
X30050000Y22050000D03*
X34050000Y22050000D03*
%TD*%
D13*
%TO.C,C7*%
X28550000Y18325000D03*
X28550000Y16775000D03*
%TD*%
D24*
%TO.C,C1*%
X15550000Y26075000D03*
X15550000Y29025000D03*
%TD*%
D11*
%TO.C,R12*%
X46225000Y11050000D03*
X47875000Y11050000D03*
%TD*%
%TO.C,R2*%
X18725000Y10550000D03*
X20375000Y10550000D03*
%TD*%
%TO.C,R9*%
X42725000Y17050000D03*
X44375000Y17050000D03*
%TD*%
D25*
%TO.C,U2*%
X6450000Y28050000D03*
X6450000Y27550000D03*
X6450000Y27050000D03*
X6450000Y26550000D03*
X6450000Y26050000D03*
X10650000Y26050000D03*
X10650000Y26550000D03*
X10650000Y27050000D03*
X10650000Y27550000D03*
X10650000Y28050000D03*
%TD*%
D26*
%TO.C,Q5*%
X6075000Y13955000D03*
X6075000Y12685000D03*
X6075000Y11415000D03*
X6075000Y10145000D03*
X11025000Y10145000D03*
X11025000Y11415000D03*
X11025000Y12685000D03*
X11025000Y13955000D03*
%TD*%
D13*
%TO.C,C5*%
X14275000Y13550000D03*
X15825000Y13550000D03*
%TD*%
D10*
%TO.C,Q2*%
X38612500Y18000000D03*
X38612500Y16100000D03*
X40487500Y17050000D03*
%TD*%
D11*
%TO.C,R8*%
X42725000Y11050000D03*
X44375000Y11050000D03*
%TD*%
D24*
%TO.C,C2*%
X19575000Y28550000D03*
X22525000Y28550000D03*
%TD*%
D27*
%TO.C,D2*%
X12900000Y10550000D03*
X16200000Y10550000D03*
%TD*%
D11*
%TO.C,R16*%
X9225000Y24050000D03*
X10875000Y24050000D03*
%TD*%
D13*
%TO.C,C6*%
X30550000Y16775000D03*
X30550000Y18325000D03*
%TD*%
D11*
%TO.C,R5*%
X24550000Y16725000D03*
X24550000Y18375000D03*
%TD*%
%TO.C,R7*%
X26550000Y18375000D03*
X26550000Y16725000D03*
%TD*%
D13*
%TO.C,C10*%
X9775000Y31050000D03*
X11325000Y31050000D03*
%TD*%
%TO.C,C4*%
X19275000Y26550000D03*
X20825000Y26550000D03*
%TD*%
D11*
%TO.C,R17*%
X46225000Y35550000D03*
X47875000Y35550000D03*
%TD*%
%TO.C,R4*%
X13050000Y22725000D03*
X13050000Y24375000D03*
%TD*%
%TO.C,R13*%
X46225000Y17050000D03*
X47875000Y17050000D03*
%TD*%
M02*
