M48
; DRILL file KiCad 10.0.5 date 2026-09-25T11:20:25
; FORMAT={-:-/ absolute / metric / decimal}
; #@! TF.CreationDate,2026-09-25T11:20:25+00:00
; #@! TF.GenerationSoftware,Kicad,Pcbnew,10.0.5
; #@! TF.FileFunction,Plated,1,4,PTH
FMAT,2
METRIC
; #@! TA.AperFunction,Plated,PTH,ViaDrill
T1C0.300
; #@! TA.AperFunction,Plated,PTH,ComponentDrill
T2C1.000
; #@! TA.AperFunction,Plated,PTH,ComponentDrill
T3C1.300
%
G90
G05
T1
X1.775Y49.35
X1.775Y43.75
X4.59Y27.99
X4.59Y25.45
X5.65Y48.05
X5.65Y43.68
X6.45Y28.05
X6.625Y8.714
X7.052Y31.05
X7.671Y27.09
X8.037Y21.391
X8.037Y19.483
X9.105Y46.16
X9.775Y19.149
X10.65Y25.2
X11.025Y12.685
X11.125Y31.396
X11.322Y28.722
X11.556Y20.044
X11.85Y26.55
X12.031Y19.654
X12.25Y20.875
X12.912Y14.912
X12.912Y12.75
X12.936Y17.913
X13.725Y14.503
X14.256Y18.389
X15.55Y29.025
X15.753Y19.669
X15.825Y13.55
X16.578Y15.303
X16.87Y24.648
X17.0Y10.55
X17.67Y19.452
X18.475Y26.55
X18.988Y25.512
X18.988Y24.23
X19.45Y22.82
X19.45Y21.28
X20.375Y10.55
X20.65Y22.82
X20.65Y21.28
X21.112Y19.87
X21.625Y26.55
X21.75Y18.375
X22.138Y19.337
X22.43Y24.648
X22.525Y28.55
X22.55Y16.725
X22.83Y22.685
X23.672Y19.452
X23.75Y18.375
X24.347Y21.891
X24.55Y16.725
X24.622Y20.853
X25.55Y5.05
X26.325Y28.55
X27.375Y17.0
X27.558Y23.955
X28.05Y26.55
X28.285Y43.635
X28.55Y16.775
X28.762Y33.084
X29.35Y18.325
X29.75Y16.775
X30.05Y5.05
X30.55Y18.325
X31.55Y53.913
X31.782Y41.35
X31.982Y44.372
X34.05Y22.05
X35.05Y27.525
X35.05Y24.575
X35.05Y19.525
X35.05Y16.575
X35.826Y30.766
X37.199Y37.382
X37.271Y16.457
X38.612Y30.766
X38.75Y5.125
X39.012Y21.407
X39.012Y15.407
X39.012Y9.407
X40.087Y17.743
X41.05Y9.503
X41.395Y38.075
X41.395Y37.066
X41.925Y23.05
X42.222Y15.997
X42.325Y22.1
X42.399Y10.107
X42.43Y37.57
X43.05Y1.25
X43.443Y28.332
X44.186Y21.572
X44.35Y5.125
X45.035Y15.29
X45.425Y23.05
X45.433Y23.758
X45.458Y11.267
X47.325Y37.097
X47.704Y32.656
X47.822Y36.523
X47.875Y29.05
X47.875Y23.05
X47.875Y17.05
X47.875Y11.05
X48.592Y36.8
X48.771Y9.503
X49.142Y39.833
X49.31Y21.572
X49.436Y40.796
X49.551Y22.16
X49.551Y14.54
T2
X2.59Y40.69
X2.59Y38.15
X2.59Y35.61
X2.59Y33.07
X2.59Y30.53
X2.59Y27.99
X2.59Y25.45
X2.59Y22.91
X2.59Y17.83
X2.59Y15.29
X2.59Y12.75
X2.59Y10.21
X2.59Y7.67
X2.59Y5.13
X30.05Y55.05
X30.05Y52.51
X30.05Y49.97
X30.05Y47.43
X30.05Y44.89
X30.05Y42.35
X50.85Y49.83
X50.85Y47.29
X50.85Y44.75
X50.85Y42.21
X50.85Y39.67
X50.85Y37.13
X50.85Y34.59
X50.85Y32.05
X50.85Y29.51
X50.85Y26.97
X50.85Y22.91
X50.85Y20.37
X50.85Y17.83
X50.85Y15.29
X50.85Y12.75
X50.85Y10.21
X50.85Y7.67
X50.85Y5.13
T3
X12.05Y5.05
X17.05Y5.05
X23.05Y5.05
X28.05Y5.05
M30
