%TF.GenerationSoftware,KiCad,Pcbnew,10.0.5*%
%TF.CreationDate,2026-09-25T11:20:25+00:00*%
%TF.ProjectId,unoq-power-shield,756e6f71-2d70-46f7-9765-722d73686965,1*%
%TF.SameCoordinates,Original*%
%TF.FileFunction,Soldermask,Bot*%
%TF.FilePolarity,Negative*%
%FSLAX46Y46*%
G04 Gerber Fmt 4.6, Leading zero omitted, Abs format (unit mm)*
G04 Created by KiCad (PCBNEW 10.0.5) date 2026-09-25 11:20:25*
%MOMM*%
%LPD*%
G01*
G04 APERTURE LIST*
%ADD10R,1.700000X1.700000*%
%ADD11C,1.700000*%
%ADD12C,3.200000*%
%ADD13R,2.600000X2.600000*%
%ADD14C,2.600000*%
G04 APERTURE END LIST*
D10*
%TO.C,J11*%
X2590000Y17830000D03*
D11*
X2590000Y15290000D03*
X2590000Y12750000D03*
X2590000Y10210000D03*
X2590000Y7670000D03*
X2590000Y5130000D03*
%TD*%
D12*
%TO.C,H1*%
X50850000Y53390000D03*
%TD*%
D10*
%TO.C,J13*%
X50850000Y26970000D03*
D11*
X50850000Y29510000D03*
X50850000Y32050000D03*
X50850000Y34590000D03*
X50850000Y37130000D03*
X50850000Y39670000D03*
X50850000Y42210000D03*
X50850000Y44750000D03*
X50850000Y47290000D03*
X50850000Y49830000D03*
%TD*%
D10*
%TO.C,J5*%
X30050000Y55050000D03*
D11*
X30050000Y52510000D03*
X30050000Y49970000D03*
X30050000Y47430000D03*
X30050000Y44890000D03*
X30050000Y42350000D03*
%TD*%
D10*
%TO.C,J10*%
X2590000Y40690000D03*
D11*
X2590000Y38150000D03*
X2590000Y35610000D03*
X2590000Y33070000D03*
X2590000Y30530000D03*
X2590000Y27990000D03*
X2590000Y25450000D03*
X2590000Y22910000D03*
%TD*%
D13*
%TO.C,J1*%
X17050000Y5050000D03*
D14*
X12050000Y5050000D03*
%TD*%
D13*
%TO.C,J2*%
X28050000Y5050000D03*
D14*
X23050000Y5050000D03*
%TD*%
D12*
%TO.C,H3*%
X7670000Y2590000D03*
%TD*%
%TO.C,H4*%
X2590000Y54660000D03*
%TD*%
D10*
%TO.C,J12*%
X50850000Y5130000D03*
D11*
X50850000Y7670000D03*
X50850000Y10210000D03*
X50850000Y12750000D03*
X50850000Y15290000D03*
X50850000Y17830000D03*
X50850000Y20370000D03*
X50850000Y22910000D03*
%TD*%
D12*
%TO.C,H2*%
X35610000Y2590000D03*
%TD*%
M02*
