%TF.GenerationSoftware,KiCad,Pcbnew,10.0.5*%
%TF.CreationDate,2026-09-25T11:20:25+00:00*%
%TF.ProjectId,unoq-power-shield,756e6f71-2d70-46f7-9765-722d73686965,1*%
%TF.SameCoordinates,Original*%
%TF.FileFunction,Legend,Top*%
%TF.FilePolarity,Positive*%
%FSLAX46Y46*%
G04 Gerber Fmt 4.6, Leading zero omitted, Abs format (unit mm)*
G04 Created by KiCad (PCBNEW 10.0.5) date 2026-09-25 11:20:25*
%MOMM*%
%LPD*%
G01*
G04 APERTURE LIST*
%ADD10C,0.150000*%
%ADD11C,0.120000*%
G04 APERTURE END LIST*
D10*
X8442857Y7991443D02*
X8742857Y7091443D01*
X8742857Y7091443D02*
X9042857Y7991443D01*
X9342857Y7091443D02*
X9342857Y7991443D01*
X9771428Y7091443D02*
X9771428Y7991443D01*
X9771428Y7991443D02*
X10285714Y7091443D01*
X10285714Y7091443D02*
X10285714Y7991443D01*
X11314285Y7991443D02*
X11914285Y7991443D01*
X11914285Y7991443D02*
X11528571Y7091443D01*
X12257142Y7434300D02*
X12942857Y7434300D01*
X13328571Y7905729D02*
X13371428Y7948586D01*
X13371428Y7948586D02*
X13457143Y7991443D01*
X13457143Y7991443D02*
X13671428Y7991443D01*
X13671428Y7991443D02*
X13757143Y7948586D01*
X13757143Y7948586D02*
X13800000Y7905729D01*
X13800000Y7905729D02*
X13842857Y7820015D01*
X13842857Y7820015D02*
X13842857Y7734300D01*
X13842857Y7734300D02*
X13800000Y7605729D01*
X13800000Y7605729D02*
X13285714Y7091443D01*
X13285714Y7091443D02*
X13842857Y7091443D01*
X14614286Y7691443D02*
X14614286Y7091443D01*
X14400000Y8034300D02*
X14185714Y7391443D01*
X14185714Y7391443D02*
X14742857Y7391443D01*
X14957143Y7991443D02*
X15257143Y7091443D01*
X15257143Y7091443D02*
X15557143Y7991443D01*
X23671428Y10991443D02*
X23242856Y10991443D01*
X23242856Y10991443D02*
X23199999Y10562872D01*
X23199999Y10562872D02*
X23242856Y10605729D01*
X23242856Y10605729D02*
X23328571Y10648586D01*
X23328571Y10648586D02*
X23542856Y10648586D01*
X23542856Y10648586D02*
X23628571Y10605729D01*
X23628571Y10605729D02*
X23671428Y10562872D01*
X23671428Y10562872D02*
X23714285Y10477158D01*
X23714285Y10477158D02*
X23714285Y10262872D01*
X23714285Y10262872D02*
X23671428Y10177158D01*
X23671428Y10177158D02*
X23628571Y10134300D01*
X23628571Y10134300D02*
X23542856Y10091443D01*
X23542856Y10091443D02*
X23328571Y10091443D01*
X23328571Y10091443D02*
X23242856Y10134300D01*
X23242856Y10134300D02*
X23199999Y10177158D01*
X23971428Y10991443D02*
X24271428Y10091443D01*
X24271428Y10091443D02*
X24571428Y10991443D01*
X25514285Y10905729D02*
X25557142Y10948586D01*
X25557142Y10948586D02*
X25642857Y10991443D01*
X25642857Y10991443D02*
X25857142Y10991443D01*
X25857142Y10991443D02*
X25942857Y10948586D01*
X25942857Y10948586D02*
X25985714Y10905729D01*
X25985714Y10905729D02*
X26028571Y10820015D01*
X26028571Y10820015D02*
X26028571Y10734300D01*
X26028571Y10734300D02*
X25985714Y10605729D01*
X25985714Y10605729D02*
X25471428Y10091443D01*
X25471428Y10091443D02*
X26028571Y10091443D01*
X26371428Y10348586D02*
X26800000Y10348586D01*
X26285714Y10091443D02*
X26585714Y10991443D01*
X26585714Y10991443D02*
X26885714Y10091443D01*
X33800000Y48491443D02*
X33371428Y48491443D01*
X33371428Y48491443D02*
X33328571Y48062872D01*
X33328571Y48062872D02*
X33371428Y48105729D01*
X33371428Y48105729D02*
X33457143Y48148586D01*
X33457143Y48148586D02*
X33671428Y48148586D01*
X33671428Y48148586D02*
X33757143Y48105729D01*
X33757143Y48105729D02*
X33800000Y48062872D01*
X33800000Y48062872D02*
X33842857Y47977158D01*
X33842857Y47977158D02*
X33842857Y47762872D01*
X33842857Y47762872D02*
X33800000Y47677158D01*
X33800000Y47677158D02*
X33757143Y47634300D01*
X33757143Y47634300D02*
X33671428Y47591443D01*
X33671428Y47591443D02*
X33457143Y47591443D01*
X33457143Y47591443D02*
X33371428Y47634300D01*
X33371428Y47634300D02*
X33328571Y47677158D01*
X34100000Y48491443D02*
X34400000Y47591443D01*
X34400000Y47591443D02*
X34700000Y48491443D01*
X35685714Y47591443D02*
X35685714Y48491443D01*
X36285714Y48491443D02*
X36457142Y48491443D01*
X36457142Y48491443D02*
X36542857Y48448586D01*
X36542857Y48448586D02*
X36628571Y48362872D01*
X36628571Y48362872D02*
X36671428Y48191443D01*
X36671428Y48191443D02*
X36671428Y47891443D01*
X36671428Y47891443D02*
X36628571Y47720015D01*
X36628571Y47720015D02*
X36542857Y47634300D01*
X36542857Y47634300D02*
X36457142Y47591443D01*
X36457142Y47591443D02*
X36285714Y47591443D01*
X36285714Y47591443D02*
X36200000Y47634300D01*
X36200000Y47634300D02*
X36114285Y47720015D01*
X36114285Y47720015D02*
X36071428Y47891443D01*
X36071428Y47891443D02*
X36071428Y48191443D01*
X36071428Y48191443D02*
X36114285Y48362872D01*
X36114285Y48362872D02*
X36200000Y48448586D01*
X36200000Y48448586D02*
X36285714Y48491443D01*
X13738094Y1411848D02*
X13738094Y745181D01*
X13309523Y1411848D02*
X13309523Y888039D01*
X13309523Y888039D02*
X13357142Y792800D01*
X13357142Y792800D02*
X13452380Y745181D01*
X13452380Y745181D02*
X13595237Y745181D01*
X13595237Y745181D02*
X13690475Y792800D01*
X13690475Y792800D02*
X13738094Y840420D01*
X14214285Y1411848D02*
X14214285Y745181D01*
X14214285Y1316610D02*
X14261904Y1364229D01*
X14261904Y1364229D02*
X14357142Y1411848D01*
X14357142Y1411848D02*
X14499999Y1411848D01*
X14499999Y1411848D02*
X14595237Y1364229D01*
X14595237Y1364229D02*
X14642856Y1268991D01*
X14642856Y1268991D02*
X14642856Y745181D01*
X15261904Y745181D02*
X15166666Y792800D01*
X15166666Y792800D02*
X15119047Y840420D01*
X15119047Y840420D02*
X15071428Y935658D01*
X15071428Y935658D02*
X15071428Y1221372D01*
X15071428Y1221372D02*
X15119047Y1316610D01*
X15119047Y1316610D02*
X15166666Y1364229D01*
X15166666Y1364229D02*
X15261904Y1411848D01*
X15261904Y1411848D02*
X15404761Y1411848D01*
X15404761Y1411848D02*
X15499999Y1364229D01*
X15499999Y1364229D02*
X15547618Y1316610D01*
X15547618Y1316610D02*
X15595237Y1221372D01*
X15595237Y1221372D02*
X15595237Y935658D01*
X15595237Y935658D02*
X15547618Y840420D01*
X15547618Y840420D02*
X15499999Y792800D01*
X15499999Y792800D02*
X15404761Y745181D01*
X15404761Y745181D02*
X15261904Y745181D01*
X16452380Y1411848D02*
X16452380Y411848D01*
X16452380Y792800D02*
X16357142Y745181D01*
X16357142Y745181D02*
X16166666Y745181D01*
X16166666Y745181D02*
X16071428Y792800D01*
X16071428Y792800D02*
X16023809Y840420D01*
X16023809Y840420D02*
X15976190Y935658D01*
X15976190Y935658D02*
X15976190Y1221372D01*
X15976190Y1221372D02*
X16023809Y1316610D01*
X16023809Y1316610D02*
X16071428Y1364229D01*
X16071428Y1364229D02*
X16166666Y1411848D01*
X16166666Y1411848D02*
X16357142Y1411848D01*
X16357142Y1411848D02*
X16452380Y1364229D01*
X16928571Y1126134D02*
X17690476Y1126134D01*
X18166666Y1411848D02*
X18166666Y411848D01*
X18166666Y1364229D02*
X18261904Y1411848D01*
X18261904Y1411848D02*
X18452380Y1411848D01*
X18452380Y1411848D02*
X18547618Y1364229D01*
X18547618Y1364229D02*
X18595237Y1316610D01*
X18595237Y1316610D02*
X18642856Y1221372D01*
X18642856Y1221372D02*
X18642856Y935658D01*
X18642856Y935658D02*
X18595237Y840420D01*
X18595237Y840420D02*
X18547618Y792800D01*
X18547618Y792800D02*
X18452380Y745181D01*
X18452380Y745181D02*
X18261904Y745181D01*
X18261904Y745181D02*
X18166666Y792800D01*
X19214285Y745181D02*
X19119047Y792800D01*
X19119047Y792800D02*
X19071428Y840420D01*
X19071428Y840420D02*
X19023809Y935658D01*
X19023809Y935658D02*
X19023809Y1221372D01*
X19023809Y1221372D02*
X19071428Y1316610D01*
X19071428Y1316610D02*
X19119047Y1364229D01*
X19119047Y1364229D02*
X19214285Y1411848D01*
X19214285Y1411848D02*
X19357142Y1411848D01*
X19357142Y1411848D02*
X19452380Y1364229D01*
X19452380Y1364229D02*
X19499999Y1316610D01*
X19499999Y1316610D02*
X19547618Y1221372D01*
X19547618Y1221372D02*
X19547618Y935658D01*
X19547618Y935658D02*
X19499999Y840420D01*
X19499999Y840420D02*
X19452380Y792800D01*
X19452380Y792800D02*
X19357142Y745181D01*
X19357142Y745181D02*
X19214285Y745181D01*
X19880952Y1411848D02*
X20071428Y745181D01*
X20071428Y745181D02*
X20261904Y1221372D01*
X20261904Y1221372D02*
X20452380Y745181D01*
X20452380Y745181D02*
X20642856Y1411848D01*
X21404761Y792800D02*
X21309523Y745181D01*
X21309523Y745181D02*
X21119047Y745181D01*
X21119047Y745181D02*
X21023809Y792800D01*
X21023809Y792800D02*
X20976190Y888039D01*
X20976190Y888039D02*
X20976190Y1268991D01*
X20976190Y1268991D02*
X21023809Y1364229D01*
X21023809Y1364229D02*
X21119047Y1411848D01*
X21119047Y1411848D02*
X21309523Y1411848D01*
X21309523Y1411848D02*
X21404761Y1364229D01*
X21404761Y1364229D02*
X21452380Y1268991D01*
X21452380Y1268991D02*
X21452380Y1173753D01*
X21452380Y1173753D02*
X20976190Y1078515D01*
X21880952Y745181D02*
X21880952Y1411848D01*
X21880952Y1221372D02*
X21928571Y1316610D01*
X21928571Y1316610D02*
X21976190Y1364229D01*
X21976190Y1364229D02*
X22071428Y1411848D01*
X22071428Y1411848D02*
X22166666Y1411848D01*
X22500000Y1126134D02*
X23261905Y1126134D01*
X23690476Y792800D02*
X23785714Y745181D01*
X23785714Y745181D02*
X23976190Y745181D01*
X23976190Y745181D02*
X24071428Y792800D01*
X24071428Y792800D02*
X24119047Y888039D01*
X24119047Y888039D02*
X24119047Y935658D01*
X24119047Y935658D02*
X24071428Y1030896D01*
X24071428Y1030896D02*
X23976190Y1078515D01*
X23976190Y1078515D02*
X23833333Y1078515D01*
X23833333Y1078515D02*
X23738095Y1126134D01*
X23738095Y1126134D02*
X23690476Y1221372D01*
X23690476Y1221372D02*
X23690476Y1268991D01*
X23690476Y1268991D02*
X23738095Y1364229D01*
X23738095Y1364229D02*
X23833333Y1411848D01*
X23833333Y1411848D02*
X23976190Y1411848D01*
X23976190Y1411848D02*
X24071428Y1364229D01*
X24547619Y745181D02*
X24547619Y1745181D01*
X24976190Y745181D02*
X24976190Y1268991D01*
X24976190Y1268991D02*
X24928571Y1364229D01*
X24928571Y1364229D02*
X24833333Y1411848D01*
X24833333Y1411848D02*
X24690476Y1411848D01*
X24690476Y1411848D02*
X24595238Y1364229D01*
X24595238Y1364229D02*
X24547619Y1316610D01*
X25452381Y745181D02*
X25452381Y1411848D01*
X25452381Y1745181D02*
X25404762Y1697562D01*
X25404762Y1697562D02*
X25452381Y1649943D01*
X25452381Y1649943D02*
X25500000Y1697562D01*
X25500000Y1697562D02*
X25452381Y1745181D01*
X25452381Y1745181D02*
X25452381Y1649943D01*
X26309523Y792800D02*
X26214285Y745181D01*
X26214285Y745181D02*
X26023809Y745181D01*
X26023809Y745181D02*
X25928571Y792800D01*
X25928571Y792800D02*
X25880952Y888039D01*
X25880952Y888039D02*
X25880952Y1268991D01*
X25880952Y1268991D02*
X25928571Y1364229D01*
X25928571Y1364229D02*
X26023809Y1411848D01*
X26023809Y1411848D02*
X26214285Y1411848D01*
X26214285Y1411848D02*
X26309523Y1364229D01*
X26309523Y1364229D02*
X26357142Y1268991D01*
X26357142Y1268991D02*
X26357142Y1173753D01*
X26357142Y1173753D02*
X25880952Y1078515D01*
X26928571Y745181D02*
X26833333Y792800D01*
X26833333Y792800D02*
X26785714Y888039D01*
X26785714Y888039D02*
X26785714Y1745181D01*
X27738095Y745181D02*
X27738095Y1745181D01*
X27738095Y792800D02*
X27642857Y745181D01*
X27642857Y745181D02*
X27452381Y745181D01*
X27452381Y745181D02*
X27357143Y792800D01*
X27357143Y792800D02*
X27309524Y840420D01*
X27309524Y840420D02*
X27261905Y935658D01*
X27261905Y935658D02*
X27261905Y1221372D01*
X27261905Y1221372D02*
X27309524Y1316610D01*
X27309524Y1316610D02*
X27357143Y1364229D01*
X27357143Y1364229D02*
X27452381Y1411848D01*
X27452381Y1411848D02*
X27642857Y1411848D01*
X27642857Y1411848D02*
X27738095Y1364229D01*
X28976191Y745181D02*
X28976191Y1411848D01*
X28976191Y1221372D02*
X29023810Y1316610D01*
X29023810Y1316610D02*
X29071429Y1364229D01*
X29071429Y1364229D02*
X29166667Y1411848D01*
X29166667Y1411848D02*
X29261905Y1411848D01*
X29976191Y792800D02*
X29880953Y745181D01*
X29880953Y745181D02*
X29690477Y745181D01*
X29690477Y745181D02*
X29595239Y792800D01*
X29595239Y792800D02*
X29547620Y888039D01*
X29547620Y888039D02*
X29547620Y1268991D01*
X29547620Y1268991D02*
X29595239Y1364229D01*
X29595239Y1364229D02*
X29690477Y1411848D01*
X29690477Y1411848D02*
X29880953Y1411848D01*
X29880953Y1411848D02*
X29976191Y1364229D01*
X29976191Y1364229D02*
X30023810Y1268991D01*
X30023810Y1268991D02*
X30023810Y1173753D01*
X30023810Y1173753D02*
X29547620Y1078515D01*
X30357144Y1411848D02*
X30595239Y745181D01*
X30595239Y745181D02*
X30833334Y1411848D01*
X31738096Y745181D02*
X31166668Y745181D01*
X31452382Y745181D02*
X31452382Y1745181D01*
X31452382Y1745181D02*
X31357144Y1602324D01*
X31357144Y1602324D02*
X31261906Y1507086D01*
X31261906Y1507086D02*
X31166668Y1459467D01*
X39454761Y25344943D02*
X39359523Y25392562D01*
X39359523Y25392562D02*
X39264285Y25487800D01*
X39264285Y25487800D02*
X39121428Y25630658D01*
X39121428Y25630658D02*
X39026190Y25678277D01*
X39026190Y25678277D02*
X38930952Y25678277D01*
X38978571Y25440181D02*
X38883333Y25487800D01*
X38883333Y25487800D02*
X38788095Y25583039D01*
X38788095Y25583039D02*
X38740476Y25773515D01*
X38740476Y25773515D02*
X38740476Y26106848D01*
X38740476Y26106848D02*
X38788095Y26297324D01*
X38788095Y26297324D02*
X38883333Y26392562D01*
X38883333Y26392562D02*
X38978571Y26440181D01*
X38978571Y26440181D02*
X39169047Y26440181D01*
X39169047Y26440181D02*
X39264285Y26392562D01*
X39264285Y26392562D02*
X39359523Y26297324D01*
X39359523Y26297324D02*
X39407142Y26106848D01*
X39407142Y26106848D02*
X39407142Y25773515D01*
X39407142Y25773515D02*
X39359523Y25583039D01*
X39359523Y25583039D02*
X39264285Y25487800D01*
X39264285Y25487800D02*
X39169047Y25440181D01*
X39169047Y25440181D02*
X38978571Y25440181D01*
X39740476Y26440181D02*
X40359523Y26440181D01*
X40359523Y26440181D02*
X40026190Y26059229D01*
X40026190Y26059229D02*
X40169047Y26059229D01*
X40169047Y26059229D02*
X40264285Y26011610D01*
X40264285Y26011610D02*
X40311904Y25963991D01*
X40311904Y25963991D02*
X40359523Y25868753D01*
X40359523Y25868753D02*
X40359523Y25630658D01*
X40359523Y25630658D02*
X40311904Y25535420D01*
X40311904Y25535420D02*
X40264285Y25487800D01*
X40264285Y25487800D02*
X40169047Y25440181D01*
X40169047Y25440181D02*
X39883333Y25440181D01*
X39883333Y25440181D02*
X39788095Y25487800D01*
X39788095Y25487800D02*
X39740476Y25535420D01*
X42907142Y30470181D02*
X42573809Y30946372D01*
X42335714Y30470181D02*
X42335714Y31470181D01*
X42335714Y31470181D02*
X42716666Y31470181D01*
X42716666Y31470181D02*
X42811904Y31422562D01*
X42811904Y31422562D02*
X42859523Y31374943D01*
X42859523Y31374943D02*
X42907142Y31279705D01*
X42907142Y31279705D02*
X42907142Y31136848D01*
X42907142Y31136848D02*
X42859523Y31041610D01*
X42859523Y31041610D02*
X42811904Y30993991D01*
X42811904Y30993991D02*
X42716666Y30946372D01*
X42716666Y30946372D02*
X42335714Y30946372D01*
X43859523Y30470181D02*
X43288095Y30470181D01*
X43573809Y30470181D02*
X43573809Y31470181D01*
X43573809Y31470181D02*
X43478571Y31327324D01*
X43478571Y31327324D02*
X43383333Y31232086D01*
X43383333Y31232086D02*
X43288095Y31184467D01*
X44811904Y30470181D02*
X44240476Y30470181D01*
X44526190Y30470181D02*
X44526190Y31470181D01*
X44526190Y31470181D02*
X44430952Y31327324D01*
X44430952Y31327324D02*
X44335714Y31232086D01*
X44335714Y31232086D02*
X44240476Y31184467D01*
X34883333Y14245420D02*
X34835714Y14197800D01*
X34835714Y14197800D02*
X34692857Y14150181D01*
X34692857Y14150181D02*
X34597619Y14150181D01*
X34597619Y14150181D02*
X34454762Y14197800D01*
X34454762Y14197800D02*
X34359524Y14293039D01*
X34359524Y14293039D02*
X34311905Y14388277D01*
X34311905Y14388277D02*
X34264286Y14578753D01*
X34264286Y14578753D02*
X34264286Y14721610D01*
X34264286Y14721610D02*
X34311905Y14912086D01*
X34311905Y14912086D02*
X34359524Y15007324D01*
X34359524Y15007324D02*
X34454762Y15102562D01*
X34454762Y15102562D02*
X34597619Y15150181D01*
X34597619Y15150181D02*
X34692857Y15150181D01*
X34692857Y15150181D02*
X34835714Y15102562D01*
X34835714Y15102562D02*
X34883333Y15054943D01*
X35454762Y14721610D02*
X35359524Y14769229D01*
X35359524Y14769229D02*
X35311905Y14816848D01*
X35311905Y14816848D02*
X35264286Y14912086D01*
X35264286Y14912086D02*
X35264286Y14959705D01*
X35264286Y14959705D02*
X35311905Y15054943D01*
X35311905Y15054943D02*
X35359524Y15102562D01*
X35359524Y15102562D02*
X35454762Y15150181D01*
X35454762Y15150181D02*
X35645238Y15150181D01*
X35645238Y15150181D02*
X35740476Y15102562D01*
X35740476Y15102562D02*
X35788095Y15054943D01*
X35788095Y15054943D02*
X35835714Y14959705D01*
X35835714Y14959705D02*
X35835714Y14912086D01*
X35835714Y14912086D02*
X35788095Y14816848D01*
X35788095Y14816848D02*
X35740476Y14769229D01*
X35740476Y14769229D02*
X35645238Y14721610D01*
X35645238Y14721610D02*
X35454762Y14721610D01*
X35454762Y14721610D02*
X35359524Y14673991D01*
X35359524Y14673991D02*
X35311905Y14626372D01*
X35311905Y14626372D02*
X35264286Y14531134D01*
X35264286Y14531134D02*
X35264286Y14340658D01*
X35264286Y14340658D02*
X35311905Y14245420D01*
X35311905Y14245420D02*
X35359524Y14197800D01*
X35359524Y14197800D02*
X35454762Y14150181D01*
X35454762Y14150181D02*
X35645238Y14150181D01*
X35645238Y14150181D02*
X35740476Y14197800D01*
X35740476Y14197800D02*
X35788095Y14245420D01*
X35788095Y14245420D02*
X35835714Y14340658D01*
X35835714Y14340658D02*
X35835714Y14531134D01*
X35835714Y14531134D02*
X35788095Y14626372D01*
X35788095Y14626372D02*
X35740476Y14673991D01*
X35740476Y14673991D02*
X35645238Y14721610D01*
X25383333Y30065420D02*
X25335714Y30017800D01*
X25335714Y30017800D02*
X25192857Y29970181D01*
X25192857Y29970181D02*
X25097619Y29970181D01*
X25097619Y29970181D02*
X24954762Y30017800D01*
X24954762Y30017800D02*
X24859524Y30113039D01*
X24859524Y30113039D02*
X24811905Y30208277D01*
X24811905Y30208277D02*
X24764286Y30398753D01*
X24764286Y30398753D02*
X24764286Y30541610D01*
X24764286Y30541610D02*
X24811905Y30732086D01*
X24811905Y30732086D02*
X24859524Y30827324D01*
X24859524Y30827324D02*
X24954762Y30922562D01*
X24954762Y30922562D02*
X25097619Y30970181D01*
X25097619Y30970181D02*
X25192857Y30970181D01*
X25192857Y30970181D02*
X25335714Y30922562D01*
X25335714Y30922562D02*
X25383333Y30874943D01*
X25716667Y30970181D02*
X26335714Y30970181D01*
X26335714Y30970181D02*
X26002381Y30589229D01*
X26002381Y30589229D02*
X26145238Y30589229D01*
X26145238Y30589229D02*
X26240476Y30541610D01*
X26240476Y30541610D02*
X26288095Y30493991D01*
X26288095Y30493991D02*
X26335714Y30398753D01*
X26335714Y30398753D02*
X26335714Y30160658D01*
X26335714Y30160658D02*
X26288095Y30065420D01*
X26288095Y30065420D02*
X26240476Y30017800D01*
X26240476Y30017800D02*
X26145238Y29970181D01*
X26145238Y29970181D02*
X25859524Y29970181D01*
X25859524Y29970181D02*
X25764286Y30017800D01*
X25764286Y30017800D02*
X25716667Y30065420D01*
X3316666Y52140181D02*
X3316666Y51425896D01*
X3316666Y51425896D02*
X3269047Y51283039D01*
X3269047Y51283039D02*
X3173809Y51187800D01*
X3173809Y51187800D02*
X3030952Y51140181D01*
X3030952Y51140181D02*
X2935714Y51140181D01*
X3697619Y52140181D02*
X4316666Y52140181D01*
X4316666Y52140181D02*
X3983333Y51759229D01*
X3983333Y51759229D02*
X4126190Y51759229D01*
X4126190Y51759229D02*
X4221428Y51711610D01*
X4221428Y51711610D02*
X4269047Y51663991D01*
X4269047Y51663991D02*
X4316666Y51568753D01*
X4316666Y51568753D02*
X4316666Y51330658D01*
X4316666Y51330658D02*
X4269047Y51235420D01*
X4269047Y51235420D02*
X4221428Y51187800D01*
X4221428Y51187800D02*
X4126190Y51140181D01*
X4126190Y51140181D02*
X3840476Y51140181D01*
X3840476Y51140181D02*
X3745238Y51187800D01*
X3745238Y51187800D02*
X3697619Y51235420D01*
X14027880Y22514573D02*
X14027880Y21826478D01*
X14027880Y21826478D02*
X14068357Y21745526D01*
X14068357Y21745526D02*
X14108833Y21705049D01*
X14108833Y21705049D02*
X14189785Y21664573D01*
X14189785Y21664573D02*
X14351690Y21664573D01*
X14351690Y21664573D02*
X14432642Y21705049D01*
X14432642Y21705049D02*
X14473119Y21745526D01*
X14473119Y21745526D02*
X14513595Y21826478D01*
X14513595Y21826478D02*
X14513595Y22514573D01*
X15363595Y21664573D02*
X14877880Y21664573D01*
X15120737Y21664573D02*
X15120737Y22514573D01*
X15120737Y22514573D02*
X15039785Y22393145D01*
X15039785Y22393145D02*
X14958833Y22312192D01*
X14958833Y22312192D02*
X14877880Y22271716D01*
X12883333Y16970181D02*
X12550000Y17446372D01*
X12311905Y16970181D02*
X12311905Y17970181D01*
X12311905Y17970181D02*
X12692857Y17970181D01*
X12692857Y17970181D02*
X12788095Y17922562D01*
X12788095Y17922562D02*
X12835714Y17874943D01*
X12835714Y17874943D02*
X12883333Y17779705D01*
X12883333Y17779705D02*
X12883333Y17636848D01*
X12883333Y17636848D02*
X12835714Y17541610D01*
X12835714Y17541610D02*
X12788095Y17493991D01*
X12788095Y17493991D02*
X12692857Y17446372D01*
X12692857Y17446372D02*
X12311905Y17446372D01*
X13216667Y17970181D02*
X13835714Y17970181D01*
X13835714Y17970181D02*
X13502381Y17589229D01*
X13502381Y17589229D02*
X13645238Y17589229D01*
X13645238Y17589229D02*
X13740476Y17541610D01*
X13740476Y17541610D02*
X13788095Y17493991D01*
X13788095Y17493991D02*
X13835714Y17398753D01*
X13835714Y17398753D02*
X13835714Y17160658D01*
X13835714Y17160658D02*
X13788095Y17065420D01*
X13788095Y17065420D02*
X13740476Y17017800D01*
X13740476Y17017800D02*
X13645238Y16970181D01*
X13645238Y16970181D02*
X13359524Y16970181D01*
X13359524Y16970181D02*
X13264286Y17017800D01*
X13264286Y17017800D02*
X13216667Y17065420D01*
X6280476Y21290181D02*
X6280476Y20575896D01*
X6280476Y20575896D02*
X6232857Y20433039D01*
X6232857Y20433039D02*
X6137619Y20337800D01*
X6137619Y20337800D02*
X5994762Y20290181D01*
X5994762Y20290181D02*
X5899524Y20290181D01*
X7280476Y20290181D02*
X6709048Y20290181D01*
X6994762Y20290181D02*
X6994762Y21290181D01*
X6994762Y21290181D02*
X6899524Y21147324D01*
X6899524Y21147324D02*
X6804286Y21052086D01*
X6804286Y21052086D02*
X6709048Y21004467D01*
X8232857Y20290181D02*
X7661429Y20290181D01*
X7947143Y20290181D02*
X7947143Y21290181D01*
X7947143Y21290181D02*
X7851905Y21147324D01*
X7851905Y21147324D02*
X7756667Y21052086D01*
X7756667Y21052086D02*
X7661429Y21004467D01*
X30209845Y26095181D02*
X30209845Y27095181D01*
X30209845Y27095181D02*
X30447940Y27095181D01*
X30447940Y27095181D02*
X30590797Y27047562D01*
X30590797Y27047562D02*
X30686035Y26952324D01*
X30686035Y26952324D02*
X30733654Y26857086D01*
X30733654Y26857086D02*
X30781273Y26666610D01*
X30781273Y26666610D02*
X30781273Y26523753D01*
X30781273Y26523753D02*
X30733654Y26333277D01*
X30733654Y26333277D02*
X30686035Y26238039D01*
X30686035Y26238039D02*
X30590797Y26142800D01*
X30590797Y26142800D02*
X30447940Y26095181D01*
X30447940Y26095181D02*
X30209845Y26095181D01*
X31733654Y26095181D02*
X31162226Y26095181D01*
X31447940Y26095181D02*
X31447940Y27095181D01*
X31447940Y27095181D02*
X31352702Y26952324D01*
X31352702Y26952324D02*
X31257464Y26857086D01*
X31257464Y26857086D02*
X31162226Y26809467D01*
X50086862Y57331413D02*
X50086862Y58331413D01*
X50086862Y57855223D02*
X50658290Y57855223D01*
X50658290Y57331413D02*
X50658290Y58331413D01*
X51658290Y57331413D02*
X51086862Y57331413D01*
X51372576Y57331413D02*
X51372576Y58331413D01*
X51372576Y58331413D02*
X51277338Y58188556D01*
X51277338Y58188556D02*
X51182100Y58093318D01*
X51182100Y58093318D02*
X51086862Y58045699D01*
X46407142Y24470181D02*
X46073809Y24946372D01*
X45835714Y24470181D02*
X45835714Y25470181D01*
X45835714Y25470181D02*
X46216666Y25470181D01*
X46216666Y25470181D02*
X46311904Y25422562D01*
X46311904Y25422562D02*
X46359523Y25374943D01*
X46359523Y25374943D02*
X46407142Y25279705D01*
X46407142Y25279705D02*
X46407142Y25136848D01*
X46407142Y25136848D02*
X46359523Y25041610D01*
X46359523Y25041610D02*
X46311904Y24993991D01*
X46311904Y24993991D02*
X46216666Y24946372D01*
X46216666Y24946372D02*
X45835714Y24946372D01*
X47359523Y24470181D02*
X46788095Y24470181D01*
X47073809Y24470181D02*
X47073809Y25470181D01*
X47073809Y25470181D02*
X46978571Y25327324D01*
X46978571Y25327324D02*
X46883333Y25232086D01*
X46883333Y25232086D02*
X46788095Y25184467D01*
X48216666Y25136848D02*
X48216666Y24470181D01*
X47978571Y25517800D02*
X47740476Y24803515D01*
X47740476Y24803515D02*
X48359523Y24803515D01*
X46407142Y30470181D02*
X46073809Y30946372D01*
X45835714Y30470181D02*
X45835714Y31470181D01*
X45835714Y31470181D02*
X46216666Y31470181D01*
X46216666Y31470181D02*
X46311904Y31422562D01*
X46311904Y31422562D02*
X46359523Y31374943D01*
X46359523Y31374943D02*
X46407142Y31279705D01*
X46407142Y31279705D02*
X46407142Y31136848D01*
X46407142Y31136848D02*
X46359523Y31041610D01*
X46359523Y31041610D02*
X46311904Y30993991D01*
X46311904Y30993991D02*
X46216666Y30946372D01*
X46216666Y30946372D02*
X45835714Y30946372D01*
X47359523Y30470181D02*
X46788095Y30470181D01*
X47073809Y30470181D02*
X47073809Y31470181D01*
X47073809Y31470181D02*
X46978571Y31327324D01*
X46978571Y31327324D02*
X46883333Y31232086D01*
X46883333Y31232086D02*
X46788095Y31184467D01*
X48264285Y31470181D02*
X47788095Y31470181D01*
X47788095Y31470181D02*
X47740476Y30993991D01*
X47740476Y30993991D02*
X47788095Y31041610D01*
X47788095Y31041610D02*
X47883333Y31089229D01*
X47883333Y31089229D02*
X48121428Y31089229D01*
X48121428Y31089229D02*
X48216666Y31041610D01*
X48216666Y31041610D02*
X48264285Y30993991D01*
X48264285Y30993991D02*
X48311904Y30898753D01*
X48311904Y30898753D02*
X48311904Y30660658D01*
X48311904Y30660658D02*
X48264285Y30565420D01*
X48264285Y30565420D02*
X48216666Y30517800D01*
X48216666Y30517800D02*
X48121428Y30470181D01*
X48121428Y30470181D02*
X47883333Y30470181D01*
X47883333Y30470181D02*
X47788095Y30517800D01*
X47788095Y30517800D02*
X47740476Y30565420D01*
X43053011Y35720181D02*
X42719678Y36196372D01*
X42481583Y35720181D02*
X42481583Y36720181D01*
X42481583Y36720181D02*
X42862535Y36720181D01*
X42862535Y36720181D02*
X42957773Y36672562D01*
X42957773Y36672562D02*
X43005392Y36624943D01*
X43005392Y36624943D02*
X43053011Y36529705D01*
X43053011Y36529705D02*
X43053011Y36386848D01*
X43053011Y36386848D02*
X43005392Y36291610D01*
X43005392Y36291610D02*
X42957773Y36243991D01*
X42957773Y36243991D02*
X42862535Y36196372D01*
X42862535Y36196372D02*
X42481583Y36196372D01*
X44005392Y35720181D02*
X43433964Y35720181D01*
X43719678Y35720181D02*
X43719678Y36720181D01*
X43719678Y36720181D02*
X43624440Y36577324D01*
X43624440Y36577324D02*
X43529202Y36482086D01*
X43529202Y36482086D02*
X43433964Y36434467D01*
X44576821Y36291610D02*
X44481583Y36339229D01*
X44481583Y36339229D02*
X44433964Y36386848D01*
X44433964Y36386848D02*
X44386345Y36482086D01*
X44386345Y36482086D02*
X44386345Y36529705D01*
X44386345Y36529705D02*
X44433964Y36624943D01*
X44433964Y36624943D02*
X44481583Y36672562D01*
X44481583Y36672562D02*
X44576821Y36720181D01*
X44576821Y36720181D02*
X44767297Y36720181D01*
X44767297Y36720181D02*
X44862535Y36672562D01*
X44862535Y36672562D02*
X44910154Y36624943D01*
X44910154Y36624943D02*
X44957773Y36529705D01*
X44957773Y36529705D02*
X44957773Y36482086D01*
X44957773Y36482086D02*
X44910154Y36386848D01*
X44910154Y36386848D02*
X44862535Y36339229D01*
X44862535Y36339229D02*
X44767297Y36291610D01*
X44767297Y36291610D02*
X44576821Y36291610D01*
X44576821Y36291610D02*
X44481583Y36243991D01*
X44481583Y36243991D02*
X44433964Y36196372D01*
X44433964Y36196372D02*
X44386345Y36101134D01*
X44386345Y36101134D02*
X44386345Y35910658D01*
X44386345Y35910658D02*
X44433964Y35815420D01*
X44433964Y35815420D02*
X44481583Y35767800D01*
X44481583Y35767800D02*
X44576821Y35720181D01*
X44576821Y35720181D02*
X44767297Y35720181D01*
X44767297Y35720181D02*
X44862535Y35767800D01*
X44862535Y35767800D02*
X44910154Y35815420D01*
X44910154Y35815420D02*
X44957773Y35910658D01*
X44957773Y35910658D02*
X44957773Y36101134D01*
X44957773Y36101134D02*
X44910154Y36196372D01*
X44910154Y36196372D02*
X44862535Y36243991D01*
X44862535Y36243991D02*
X44767297Y36291610D01*
X34883333Y29135420D02*
X34835714Y29087800D01*
X34835714Y29087800D02*
X34692857Y29040181D01*
X34692857Y29040181D02*
X34597619Y29040181D01*
X34597619Y29040181D02*
X34454762Y29087800D01*
X34454762Y29087800D02*
X34359524Y29183039D01*
X34359524Y29183039D02*
X34311905Y29278277D01*
X34311905Y29278277D02*
X34264286Y29468753D01*
X34264286Y29468753D02*
X34264286Y29611610D01*
X34264286Y29611610D02*
X34311905Y29802086D01*
X34311905Y29802086D02*
X34359524Y29897324D01*
X34359524Y29897324D02*
X34454762Y29992562D01*
X34454762Y29992562D02*
X34597619Y30040181D01*
X34597619Y30040181D02*
X34692857Y30040181D01*
X34692857Y30040181D02*
X34835714Y29992562D01*
X34835714Y29992562D02*
X34883333Y29944943D01*
X35359524Y29040181D02*
X35550000Y29040181D01*
X35550000Y29040181D02*
X35645238Y29087800D01*
X35645238Y29087800D02*
X35692857Y29135420D01*
X35692857Y29135420D02*
X35788095Y29278277D01*
X35788095Y29278277D02*
X35835714Y29468753D01*
X35835714Y29468753D02*
X35835714Y29849705D01*
X35835714Y29849705D02*
X35788095Y29944943D01*
X35788095Y29944943D02*
X35740476Y29992562D01*
X35740476Y29992562D02*
X35645238Y30040181D01*
X35645238Y30040181D02*
X35454762Y30040181D01*
X35454762Y30040181D02*
X35359524Y29992562D01*
X35359524Y29992562D02*
X35311905Y29944943D01*
X35311905Y29944943D02*
X35264286Y29849705D01*
X35264286Y29849705D02*
X35264286Y29611610D01*
X35264286Y29611610D02*
X35311905Y29516372D01*
X35311905Y29516372D02*
X35359524Y29468753D01*
X35359524Y29468753D02*
X35454762Y29421134D01*
X35454762Y29421134D02*
X35645238Y29421134D01*
X35645238Y29421134D02*
X35740476Y29468753D01*
X35740476Y29468753D02*
X35788095Y29516372D01*
X35788095Y29516372D02*
X35835714Y29611610D01*
X20255393Y17095181D02*
X19922060Y17571372D01*
X19683965Y17095181D02*
X19683965Y18095181D01*
X19683965Y18095181D02*
X20064917Y18095181D01*
X20064917Y18095181D02*
X20160155Y18047562D01*
X20160155Y18047562D02*
X20207774Y17999943D01*
X20207774Y17999943D02*
X20255393Y17904705D01*
X20255393Y17904705D02*
X20255393Y17761848D01*
X20255393Y17761848D02*
X20207774Y17666610D01*
X20207774Y17666610D02*
X20160155Y17618991D01*
X20160155Y17618991D02*
X20064917Y17571372D01*
X20064917Y17571372D02*
X19683965Y17571372D01*
X21112536Y18095181D02*
X20922060Y18095181D01*
X20922060Y18095181D02*
X20826822Y18047562D01*
X20826822Y18047562D02*
X20779203Y17999943D01*
X20779203Y17999943D02*
X20683965Y17857086D01*
X20683965Y17857086D02*
X20636346Y17666610D01*
X20636346Y17666610D02*
X20636346Y17285658D01*
X20636346Y17285658D02*
X20683965Y17190420D01*
X20683965Y17190420D02*
X20731584Y17142800D01*
X20731584Y17142800D02*
X20826822Y17095181D01*
X20826822Y17095181D02*
X21017298Y17095181D01*
X21017298Y17095181D02*
X21112536Y17142800D01*
X21112536Y17142800D02*
X21160155Y17190420D01*
X21160155Y17190420D02*
X21207774Y17285658D01*
X21207774Y17285658D02*
X21207774Y17523753D01*
X21207774Y17523753D02*
X21160155Y17618991D01*
X21160155Y17618991D02*
X21112536Y17666610D01*
X21112536Y17666610D02*
X21017298Y17714229D01*
X21017298Y17714229D02*
X20826822Y17714229D01*
X20826822Y17714229D02*
X20731584Y17666610D01*
X20731584Y17666610D02*
X20683965Y17618991D01*
X20683965Y17618991D02*
X20636346Y17523753D01*
X46407142Y41970181D02*
X46073809Y42446372D01*
X45835714Y41970181D02*
X45835714Y42970181D01*
X45835714Y42970181D02*
X46216666Y42970181D01*
X46216666Y42970181D02*
X46311904Y42922562D01*
X46311904Y42922562D02*
X46359523Y42874943D01*
X46359523Y42874943D02*
X46407142Y42779705D01*
X46407142Y42779705D02*
X46407142Y42636848D01*
X46407142Y42636848D02*
X46359523Y42541610D01*
X46359523Y42541610D02*
X46311904Y42493991D01*
X46311904Y42493991D02*
X46216666Y42446372D01*
X46216666Y42446372D02*
X45835714Y42446372D01*
X47359523Y41970181D02*
X46788095Y41970181D01*
X47073809Y41970181D02*
X47073809Y42970181D01*
X47073809Y42970181D02*
X46978571Y42827324D01*
X46978571Y42827324D02*
X46883333Y42732086D01*
X46883333Y42732086D02*
X46788095Y42684467D01*
X47835714Y41970181D02*
X48026190Y41970181D01*
X48026190Y41970181D02*
X48121428Y42017800D01*
X48121428Y42017800D02*
X48169047Y42065420D01*
X48169047Y42065420D02*
X48264285Y42208277D01*
X48264285Y42208277D02*
X48311904Y42398753D01*
X48311904Y42398753D02*
X48311904Y42779705D01*
X48311904Y42779705D02*
X48264285Y42874943D01*
X48264285Y42874943D02*
X48216666Y42922562D01*
X48216666Y42922562D02*
X48121428Y42970181D01*
X48121428Y42970181D02*
X47930952Y42970181D01*
X47930952Y42970181D02*
X47835714Y42922562D01*
X47835714Y42922562D02*
X47788095Y42874943D01*
X47788095Y42874943D02*
X47740476Y42779705D01*
X47740476Y42779705D02*
X47740476Y42541610D01*
X47740476Y42541610D02*
X47788095Y42446372D01*
X47788095Y42446372D02*
X47835714Y42398753D01*
X47835714Y42398753D02*
X47930952Y42351134D01*
X47930952Y42351134D02*
X48121428Y42351134D01*
X48121428Y42351134D02*
X48216666Y42398753D01*
X48216666Y42398753D02*
X48264285Y42446372D01*
X48264285Y42446372D02*
X48311904Y42541610D01*
X44927317Y60465241D02*
X44593984Y60465241D01*
X44593984Y59941431D02*
X44593984Y60941431D01*
X44593984Y60941431D02*
X45070174Y60941431D01*
X45451127Y59941431D02*
X45451127Y60941431D01*
X45927317Y59941431D02*
X45927317Y60941431D01*
X45927317Y60941431D02*
X46165412Y60941431D01*
X46165412Y60941431D02*
X46308269Y60893812D01*
X46308269Y60893812D02*
X46403507Y60798574D01*
X46403507Y60798574D02*
X46451126Y60703336D01*
X46451126Y60703336D02*
X46498745Y60512860D01*
X46498745Y60512860D02*
X46498745Y60370003D01*
X46498745Y60370003D02*
X46451126Y60179527D01*
X46451126Y60179527D02*
X46403507Y60084289D01*
X46403507Y60084289D02*
X46308269Y59989050D01*
X46308269Y59989050D02*
X46165412Y59941431D01*
X46165412Y59941431D02*
X45927317Y59941431D01*
X46832079Y60941431D02*
X47451126Y60941431D01*
X47451126Y60941431D02*
X47117793Y60560479D01*
X47117793Y60560479D02*
X47260650Y60560479D01*
X47260650Y60560479D02*
X47355888Y60512860D01*
X47355888Y60512860D02*
X47403507Y60465241D01*
X47403507Y60465241D02*
X47451126Y60370003D01*
X47451126Y60370003D02*
X47451126Y60131908D01*
X47451126Y60131908D02*
X47403507Y60036670D01*
X47403507Y60036670D02*
X47355888Y59989050D01*
X47355888Y59989050D02*
X47260650Y59941431D01*
X47260650Y59941431D02*
X46974936Y59941431D01*
X46974936Y59941431D02*
X46879698Y59989050D01*
X46879698Y59989050D02*
X46832079Y60036670D01*
X46473726Y53290181D02*
X46473726Y52575896D01*
X46473726Y52575896D02*
X46426107Y52433039D01*
X46426107Y52433039D02*
X46330869Y52337800D01*
X46330869Y52337800D02*
X46188012Y52290181D01*
X46188012Y52290181D02*
X46092774Y52290181D01*
X47473726Y52290181D02*
X46902298Y52290181D01*
X47188012Y52290181D02*
X47188012Y53290181D01*
X47188012Y53290181D02*
X47092774Y53147324D01*
X47092774Y53147324D02*
X46997536Y53052086D01*
X46997536Y53052086D02*
X46902298Y53004467D01*
X47807060Y53290181D02*
X48426107Y53290181D01*
X48426107Y53290181D02*
X48092774Y52909229D01*
X48092774Y52909229D02*
X48235631Y52909229D01*
X48235631Y52909229D02*
X48330869Y52861610D01*
X48330869Y52861610D02*
X48378488Y52813991D01*
X48378488Y52813991D02*
X48426107Y52718753D01*
X48426107Y52718753D02*
X48426107Y52480658D01*
X48426107Y52480658D02*
X48378488Y52385420D01*
X48378488Y52385420D02*
X48330869Y52337800D01*
X48330869Y52337800D02*
X48235631Y52290181D01*
X48235631Y52290181D02*
X47949917Y52290181D01*
X47949917Y52290181D02*
X47854679Y52337800D01*
X47854679Y52337800D02*
X47807060Y52385420D01*
X39454761Y31344943D02*
X39359523Y31392562D01*
X39359523Y31392562D02*
X39264285Y31487800D01*
X39264285Y31487800D02*
X39121428Y31630658D01*
X39121428Y31630658D02*
X39026190Y31678277D01*
X39026190Y31678277D02*
X38930952Y31678277D01*
X38978571Y31440181D02*
X38883333Y31487800D01*
X38883333Y31487800D02*
X38788095Y31583039D01*
X38788095Y31583039D02*
X38740476Y31773515D01*
X38740476Y31773515D02*
X38740476Y32106848D01*
X38740476Y32106848D02*
X38788095Y32297324D01*
X38788095Y32297324D02*
X38883333Y32392562D01*
X38883333Y32392562D02*
X38978571Y32440181D01*
X38978571Y32440181D02*
X39169047Y32440181D01*
X39169047Y32440181D02*
X39264285Y32392562D01*
X39264285Y32392562D02*
X39359523Y32297324D01*
X39359523Y32297324D02*
X39407142Y32106848D01*
X39407142Y32106848D02*
X39407142Y31773515D01*
X39407142Y31773515D02*
X39359523Y31583039D01*
X39359523Y31583039D02*
X39264285Y31487800D01*
X39264285Y31487800D02*
X39169047Y31440181D01*
X39169047Y31440181D02*
X38978571Y31440181D01*
X40264285Y32106848D02*
X40264285Y31440181D01*
X40026190Y32487800D02*
X39788095Y31773515D01*
X39788095Y31773515D02*
X40407142Y31773515D01*
X6927317Y35465241D02*
X6593984Y35465241D01*
X6593984Y34941431D02*
X6593984Y35941431D01*
X6593984Y35941431D02*
X7070174Y35941431D01*
X7451127Y34941431D02*
X7451127Y35941431D01*
X7927317Y34941431D02*
X7927317Y35941431D01*
X7927317Y35941431D02*
X8165412Y35941431D01*
X8165412Y35941431D02*
X8308269Y35893812D01*
X8308269Y35893812D02*
X8403507Y35798574D01*
X8403507Y35798574D02*
X8451126Y35703336D01*
X8451126Y35703336D02*
X8498745Y35512860D01*
X8498745Y35512860D02*
X8498745Y35370003D01*
X8498745Y35370003D02*
X8451126Y35179527D01*
X8451126Y35179527D02*
X8403507Y35084289D01*
X8403507Y35084289D02*
X8308269Y34989050D01*
X8308269Y34989050D02*
X8165412Y34941431D01*
X8165412Y34941431D02*
X7927317Y34941431D01*
X8879698Y35846193D02*
X8927317Y35893812D01*
X8927317Y35893812D02*
X9022555Y35941431D01*
X9022555Y35941431D02*
X9260650Y35941431D01*
X9260650Y35941431D02*
X9355888Y35893812D01*
X9355888Y35893812D02*
X9403507Y35846193D01*
X9403507Y35846193D02*
X9451126Y35750955D01*
X9451126Y35750955D02*
X9451126Y35655717D01*
X9451126Y35655717D02*
X9403507Y35512860D01*
X9403507Y35512860D02*
X8832079Y34941431D01*
X8832079Y34941431D02*
X9451126Y34941431D01*
X42907142Y24470181D02*
X42573809Y24946372D01*
X42335714Y24470181D02*
X42335714Y25470181D01*
X42335714Y25470181D02*
X42716666Y25470181D01*
X42716666Y25470181D02*
X42811904Y25422562D01*
X42811904Y25422562D02*
X42859523Y25374943D01*
X42859523Y25374943D02*
X42907142Y25279705D01*
X42907142Y25279705D02*
X42907142Y25136848D01*
X42907142Y25136848D02*
X42859523Y25041610D01*
X42859523Y25041610D02*
X42811904Y24993991D01*
X42811904Y24993991D02*
X42716666Y24946372D01*
X42716666Y24946372D02*
X42335714Y24946372D01*
X43859523Y24470181D02*
X43288095Y24470181D01*
X43573809Y24470181D02*
X43573809Y25470181D01*
X43573809Y25470181D02*
X43478571Y25327324D01*
X43478571Y25327324D02*
X43383333Y25232086D01*
X43383333Y25232086D02*
X43288095Y25184467D01*
X44478571Y25470181D02*
X44573809Y25470181D01*
X44573809Y25470181D02*
X44669047Y25422562D01*
X44669047Y25422562D02*
X44716666Y25374943D01*
X44716666Y25374943D02*
X44764285Y25279705D01*
X44764285Y25279705D02*
X44811904Y25089229D01*
X44811904Y25089229D02*
X44811904Y24851134D01*
X44811904Y24851134D02*
X44764285Y24660658D01*
X44764285Y24660658D02*
X44716666Y24565420D01*
X44716666Y24565420D02*
X44669047Y24517800D01*
X44669047Y24517800D02*
X44573809Y24470181D01*
X44573809Y24470181D02*
X44478571Y24470181D01*
X44478571Y24470181D02*
X44383333Y24517800D01*
X44383333Y24517800D02*
X44335714Y24565420D01*
X44335714Y24565420D02*
X44288095Y24660658D01*
X44288095Y24660658D02*
X44240476Y24851134D01*
X44240476Y24851134D02*
X44240476Y25089229D01*
X44240476Y25089229D02*
X44288095Y25279705D01*
X44288095Y25279705D02*
X44335714Y25374943D01*
X44335714Y25374943D02*
X44383333Y25422562D01*
X44383333Y25422562D02*
X44478571Y25470181D01*
X6883333Y24070181D02*
X6550000Y24546372D01*
X6311905Y24070181D02*
X6311905Y25070181D01*
X6311905Y25070181D02*
X6692857Y25070181D01*
X6692857Y25070181D02*
X6788095Y25022562D01*
X6788095Y25022562D02*
X6835714Y24974943D01*
X6835714Y24974943D02*
X6883333Y24879705D01*
X6883333Y24879705D02*
X6883333Y24736848D01*
X6883333Y24736848D02*
X6835714Y24641610D01*
X6835714Y24641610D02*
X6788095Y24593991D01*
X6788095Y24593991D02*
X6692857Y24546372D01*
X6692857Y24546372D02*
X6311905Y24546372D01*
X7835714Y24070181D02*
X7264286Y24070181D01*
X7550000Y24070181D02*
X7550000Y25070181D01*
X7550000Y25070181D02*
X7454762Y24927324D01*
X7454762Y24927324D02*
X7359524Y24832086D01*
X7359524Y24832086D02*
X7264286Y24784467D01*
X29927317Y38465241D02*
X29593984Y38465241D01*
X29593984Y37941431D02*
X29593984Y38941431D01*
X29593984Y38941431D02*
X30070174Y38941431D01*
X30451127Y37941431D02*
X30451127Y38941431D01*
X30927317Y37941431D02*
X30927317Y38941431D01*
X30927317Y38941431D02*
X31165412Y38941431D01*
X31165412Y38941431D02*
X31308269Y38893812D01*
X31308269Y38893812D02*
X31403507Y38798574D01*
X31403507Y38798574D02*
X31451126Y38703336D01*
X31451126Y38703336D02*
X31498745Y38512860D01*
X31498745Y38512860D02*
X31498745Y38370003D01*
X31498745Y38370003D02*
X31451126Y38179527D01*
X31451126Y38179527D02*
X31403507Y38084289D01*
X31403507Y38084289D02*
X31308269Y37989050D01*
X31308269Y37989050D02*
X31165412Y37941431D01*
X31165412Y37941431D02*
X30927317Y37941431D01*
X32451126Y37941431D02*
X31879698Y37941431D01*
X32165412Y37941431D02*
X32165412Y38941431D01*
X32165412Y38941431D02*
X32070174Y38798574D01*
X32070174Y38798574D02*
X31974936Y38703336D01*
X31974936Y38703336D02*
X31879698Y38655717D01*
X39454761Y13344943D02*
X39359523Y13392562D01*
X39359523Y13392562D02*
X39264285Y13487800D01*
X39264285Y13487800D02*
X39121428Y13630658D01*
X39121428Y13630658D02*
X39026190Y13678277D01*
X39026190Y13678277D02*
X38930952Y13678277D01*
X38978571Y13440181D02*
X38883333Y13487800D01*
X38883333Y13487800D02*
X38788095Y13583039D01*
X38788095Y13583039D02*
X38740476Y13773515D01*
X38740476Y13773515D02*
X38740476Y14106848D01*
X38740476Y14106848D02*
X38788095Y14297324D01*
X38788095Y14297324D02*
X38883333Y14392562D01*
X38883333Y14392562D02*
X38978571Y14440181D01*
X38978571Y14440181D02*
X39169047Y14440181D01*
X39169047Y14440181D02*
X39264285Y14392562D01*
X39264285Y14392562D02*
X39359523Y14297324D01*
X39359523Y14297324D02*
X39407142Y14106848D01*
X39407142Y14106848D02*
X39407142Y13773515D01*
X39407142Y13773515D02*
X39359523Y13583039D01*
X39359523Y13583039D02*
X39264285Y13487800D01*
X39264285Y13487800D02*
X39169047Y13440181D01*
X39169047Y13440181D02*
X38978571Y13440181D01*
X40359523Y13440181D02*
X39788095Y13440181D01*
X40073809Y13440181D02*
X40073809Y14440181D01*
X40073809Y14440181D02*
X39978571Y14297324D01*
X39978571Y14297324D02*
X39883333Y14202086D01*
X39883333Y14202086D02*
X39788095Y14154467D01*
X41216666Y8220181D02*
X41216666Y7505896D01*
X41216666Y7505896D02*
X41169047Y7363039D01*
X41169047Y7363039D02*
X41073809Y7267800D01*
X41073809Y7267800D02*
X40930952Y7220181D01*
X40930952Y7220181D02*
X40835714Y7220181D01*
X42121428Y7886848D02*
X42121428Y7220181D01*
X41883333Y8267800D02*
X41645238Y7553515D01*
X41645238Y7553515D02*
X42264285Y7553515D01*
X42311905Y39790181D02*
X42311905Y40790181D01*
X42311905Y40790181D02*
X42550000Y40790181D01*
X42550000Y40790181D02*
X42692857Y40742562D01*
X42692857Y40742562D02*
X42788095Y40647324D01*
X42788095Y40647324D02*
X42835714Y40552086D01*
X42835714Y40552086D02*
X42883333Y40361610D01*
X42883333Y40361610D02*
X42883333Y40218753D01*
X42883333Y40218753D02*
X42835714Y40028277D01*
X42835714Y40028277D02*
X42788095Y39933039D01*
X42788095Y39933039D02*
X42692857Y39837800D01*
X42692857Y39837800D02*
X42550000Y39790181D01*
X42550000Y39790181D02*
X42311905Y39790181D01*
X43216667Y40790181D02*
X43835714Y40790181D01*
X43835714Y40790181D02*
X43502381Y40409229D01*
X43502381Y40409229D02*
X43645238Y40409229D01*
X43645238Y40409229D02*
X43740476Y40361610D01*
X43740476Y40361610D02*
X43788095Y40313991D01*
X43788095Y40313991D02*
X43835714Y40218753D01*
X43835714Y40218753D02*
X43835714Y39980658D01*
X43835714Y39980658D02*
X43788095Y39885420D01*
X43788095Y39885420D02*
X43740476Y39837800D01*
X43740476Y39837800D02*
X43645238Y39790181D01*
X43645238Y39790181D02*
X43359524Y39790181D01*
X43359524Y39790181D02*
X43264286Y39837800D01*
X43264286Y39837800D02*
X43216667Y39885420D01*
X31908333Y17069573D02*
X31503571Y17069573D01*
X31503571Y17069573D02*
X31503571Y17919573D01*
X32636905Y17069573D02*
X32151190Y17069573D01*
X32394047Y17069573D02*
X32394047Y17919573D01*
X32394047Y17919573D02*
X32313095Y17798145D01*
X32313095Y17798145D02*
X32232143Y17717192D01*
X32232143Y17717192D02*
X32151190Y17676716D01*
X26255393Y19815420D02*
X26207774Y19767800D01*
X26207774Y19767800D02*
X26064917Y19720181D01*
X26064917Y19720181D02*
X25969679Y19720181D01*
X25969679Y19720181D02*
X25826822Y19767800D01*
X25826822Y19767800D02*
X25731584Y19863039D01*
X25731584Y19863039D02*
X25683965Y19958277D01*
X25683965Y19958277D02*
X25636346Y20148753D01*
X25636346Y20148753D02*
X25636346Y20291610D01*
X25636346Y20291610D02*
X25683965Y20482086D01*
X25683965Y20482086D02*
X25731584Y20577324D01*
X25731584Y20577324D02*
X25826822Y20672562D01*
X25826822Y20672562D02*
X25969679Y20720181D01*
X25969679Y20720181D02*
X26064917Y20720181D01*
X26064917Y20720181D02*
X26207774Y20672562D01*
X26207774Y20672562D02*
X26255393Y20624943D01*
X26588727Y20720181D02*
X27255393Y20720181D01*
X27255393Y20720181D02*
X26826822Y19720181D01*
X15383333Y30635420D02*
X15335714Y30587800D01*
X15335714Y30587800D02*
X15192857Y30540181D01*
X15192857Y30540181D02*
X15097619Y30540181D01*
X15097619Y30540181D02*
X14954762Y30587800D01*
X14954762Y30587800D02*
X14859524Y30683039D01*
X14859524Y30683039D02*
X14811905Y30778277D01*
X14811905Y30778277D02*
X14764286Y30968753D01*
X14764286Y30968753D02*
X14764286Y31111610D01*
X14764286Y31111610D02*
X14811905Y31302086D01*
X14811905Y31302086D02*
X14859524Y31397324D01*
X14859524Y31397324D02*
X14954762Y31492562D01*
X14954762Y31492562D02*
X15097619Y31540181D01*
X15097619Y31540181D02*
X15192857Y31540181D01*
X15192857Y31540181D02*
X15335714Y31492562D01*
X15335714Y31492562D02*
X15383333Y31444943D01*
X16335714Y30540181D02*
X15764286Y30540181D01*
X16050000Y30540181D02*
X16050000Y31540181D01*
X16050000Y31540181D02*
X15954762Y31397324D01*
X15954762Y31397324D02*
X15859524Y31302086D01*
X15859524Y31302086D02*
X15764286Y31254467D01*
X46407142Y12470181D02*
X46073809Y12946372D01*
X45835714Y12470181D02*
X45835714Y13470181D01*
X45835714Y13470181D02*
X46216666Y13470181D01*
X46216666Y13470181D02*
X46311904Y13422562D01*
X46311904Y13422562D02*
X46359523Y13374943D01*
X46359523Y13374943D02*
X46407142Y13279705D01*
X46407142Y13279705D02*
X46407142Y13136848D01*
X46407142Y13136848D02*
X46359523Y13041610D01*
X46359523Y13041610D02*
X46311904Y12993991D01*
X46311904Y12993991D02*
X46216666Y12946372D01*
X46216666Y12946372D02*
X45835714Y12946372D01*
X47359523Y12470181D02*
X46788095Y12470181D01*
X47073809Y12470181D02*
X47073809Y13470181D01*
X47073809Y13470181D02*
X46978571Y13327324D01*
X46978571Y13327324D02*
X46883333Y13232086D01*
X46883333Y13232086D02*
X46788095Y13184467D01*
X47740476Y13374943D02*
X47788095Y13422562D01*
X47788095Y13422562D02*
X47883333Y13470181D01*
X47883333Y13470181D02*
X48121428Y13470181D01*
X48121428Y13470181D02*
X48216666Y13422562D01*
X48216666Y13422562D02*
X48264285Y13374943D01*
X48264285Y13374943D02*
X48311904Y13279705D01*
X48311904Y13279705D02*
X48311904Y13184467D01*
X48311904Y13184467D02*
X48264285Y13041610D01*
X48264285Y13041610D02*
X47692857Y12470181D01*
X47692857Y12470181D02*
X48311904Y12470181D01*
X22261273Y11970181D02*
X21927940Y12446372D01*
X21689845Y11970181D02*
X21689845Y12970181D01*
X21689845Y12970181D02*
X22070797Y12970181D01*
X22070797Y12970181D02*
X22166035Y12922562D01*
X22166035Y12922562D02*
X22213654Y12874943D01*
X22213654Y12874943D02*
X22261273Y12779705D01*
X22261273Y12779705D02*
X22261273Y12636848D01*
X22261273Y12636848D02*
X22213654Y12541610D01*
X22213654Y12541610D02*
X22166035Y12493991D01*
X22166035Y12493991D02*
X22070797Y12446372D01*
X22070797Y12446372D02*
X21689845Y12446372D01*
X22642226Y12874943D02*
X22689845Y12922562D01*
X22689845Y12922562D02*
X22785083Y12970181D01*
X22785083Y12970181D02*
X23023178Y12970181D01*
X23023178Y12970181D02*
X23118416Y12922562D01*
X23118416Y12922562D02*
X23166035Y12874943D01*
X23166035Y12874943D02*
X23213654Y12779705D01*
X23213654Y12779705D02*
X23213654Y12684467D01*
X23213654Y12684467D02*
X23166035Y12541610D01*
X23166035Y12541610D02*
X22594607Y11970181D01*
X22594607Y11970181D02*
X23213654Y11970181D01*
X43383333Y18470181D02*
X43050000Y18946372D01*
X42811905Y18470181D02*
X42811905Y19470181D01*
X42811905Y19470181D02*
X43192857Y19470181D01*
X43192857Y19470181D02*
X43288095Y19422562D01*
X43288095Y19422562D02*
X43335714Y19374943D01*
X43335714Y19374943D02*
X43383333Y19279705D01*
X43383333Y19279705D02*
X43383333Y19136848D01*
X43383333Y19136848D02*
X43335714Y19041610D01*
X43335714Y19041610D02*
X43288095Y18993991D01*
X43288095Y18993991D02*
X43192857Y18946372D01*
X43192857Y18946372D02*
X42811905Y18946372D01*
X43859524Y18470181D02*
X44050000Y18470181D01*
X44050000Y18470181D02*
X44145238Y18517800D01*
X44145238Y18517800D02*
X44192857Y18565420D01*
X44192857Y18565420D02*
X44288095Y18708277D01*
X44288095Y18708277D02*
X44335714Y18898753D01*
X44335714Y18898753D02*
X44335714Y19279705D01*
X44335714Y19279705D02*
X44288095Y19374943D01*
X44288095Y19374943D02*
X44240476Y19422562D01*
X44240476Y19422562D02*
X44145238Y19470181D01*
X44145238Y19470181D02*
X43954762Y19470181D01*
X43954762Y19470181D02*
X43859524Y19422562D01*
X43859524Y19422562D02*
X43811905Y19374943D01*
X43811905Y19374943D02*
X43764286Y19279705D01*
X43764286Y19279705D02*
X43764286Y19041610D01*
X43764286Y19041610D02*
X43811905Y18946372D01*
X43811905Y18946372D02*
X43859524Y18898753D01*
X43859524Y18898753D02*
X43954762Y18851134D01*
X43954762Y18851134D02*
X44145238Y18851134D01*
X44145238Y18851134D02*
X44240476Y18898753D01*
X44240476Y18898753D02*
X44288095Y18946372D01*
X44288095Y18946372D02*
X44335714Y19041610D01*
X12309845Y30490181D02*
X12309845Y29680658D01*
X12309845Y29680658D02*
X12357464Y29585420D01*
X12357464Y29585420D02*
X12405083Y29537800D01*
X12405083Y29537800D02*
X12500321Y29490181D01*
X12500321Y29490181D02*
X12690797Y29490181D01*
X12690797Y29490181D02*
X12786035Y29537800D01*
X12786035Y29537800D02*
X12833654Y29585420D01*
X12833654Y29585420D02*
X12881273Y29680658D01*
X12881273Y29680658D02*
X12881273Y30490181D01*
X13309845Y30394943D02*
X13357464Y30442562D01*
X13357464Y30442562D02*
X13452702Y30490181D01*
X13452702Y30490181D02*
X13690797Y30490181D01*
X13690797Y30490181D02*
X13786035Y30442562D01*
X13786035Y30442562D02*
X13833654Y30394943D01*
X13833654Y30394943D02*
X13881273Y30299705D01*
X13881273Y30299705D02*
X13881273Y30204467D01*
X13881273Y30204467D02*
X13833654Y30061610D01*
X13833654Y30061610D02*
X13262226Y29490181D01*
X13262226Y29490181D02*
X13881273Y29490181D01*
X29716666Y58510181D02*
X29716666Y57795896D01*
X29716666Y57795896D02*
X29669047Y57653039D01*
X29669047Y57653039D02*
X29573809Y57557800D01*
X29573809Y57557800D02*
X29430952Y57510181D01*
X29430952Y57510181D02*
X29335714Y57510181D01*
X30669047Y58510181D02*
X30192857Y58510181D01*
X30192857Y58510181D02*
X30145238Y58033991D01*
X30145238Y58033991D02*
X30192857Y58081610D01*
X30192857Y58081610D02*
X30288095Y58129229D01*
X30288095Y58129229D02*
X30526190Y58129229D01*
X30526190Y58129229D02*
X30621428Y58081610D01*
X30621428Y58081610D02*
X30669047Y58033991D01*
X30669047Y58033991D02*
X30716666Y57938753D01*
X30716666Y57938753D02*
X30716666Y57700658D01*
X30716666Y57700658D02*
X30669047Y57605420D01*
X30669047Y57605420D02*
X30621428Y57557800D01*
X30621428Y57557800D02*
X30526190Y57510181D01*
X30526190Y57510181D02*
X30288095Y57510181D01*
X30288095Y57510181D02*
X30192857Y57557800D01*
X30192857Y57557800D02*
X30145238Y57605420D01*
X6347226Y19540181D02*
X6347226Y18825896D01*
X6347226Y18825896D02*
X6299607Y18683039D01*
X6299607Y18683039D02*
X6204369Y18587800D01*
X6204369Y18587800D02*
X6061512Y18540181D01*
X6061512Y18540181D02*
X5966274Y18540181D01*
X7347226Y18540181D02*
X6775798Y18540181D01*
X7061512Y18540181D02*
X7061512Y19540181D01*
X7061512Y19540181D02*
X6966274Y19397324D01*
X6966274Y19397324D02*
X6871036Y19302086D01*
X6871036Y19302086D02*
X6775798Y19254467D01*
X7966274Y19540181D02*
X8061512Y19540181D01*
X8061512Y19540181D02*
X8156750Y19492562D01*
X8156750Y19492562D02*
X8204369Y19444943D01*
X8204369Y19444943D02*
X8251988Y19349705D01*
X8251988Y19349705D02*
X8299607Y19159229D01*
X8299607Y19159229D02*
X8299607Y18921134D01*
X8299607Y18921134D02*
X8251988Y18730658D01*
X8251988Y18730658D02*
X8204369Y18635420D01*
X8204369Y18635420D02*
X8156750Y18587800D01*
X8156750Y18587800D02*
X8061512Y18540181D01*
X8061512Y18540181D02*
X7966274Y18540181D01*
X7966274Y18540181D02*
X7871036Y18587800D01*
X7871036Y18587800D02*
X7823417Y18635420D01*
X7823417Y18635420D02*
X7775798Y18730658D01*
X7775798Y18730658D02*
X7728179Y18921134D01*
X7728179Y18921134D02*
X7728179Y19159229D01*
X7728179Y19159229D02*
X7775798Y19349705D01*
X7775798Y19349705D02*
X7823417Y19444943D01*
X7823417Y19444943D02*
X7871036Y19492562D01*
X7871036Y19492562D02*
X7966274Y19540181D01*
X6654761Y7654943D02*
X6559523Y7702562D01*
X6559523Y7702562D02*
X6464285Y7797800D01*
X6464285Y7797800D02*
X6321428Y7940658D01*
X6321428Y7940658D02*
X6226190Y7988277D01*
X6226190Y7988277D02*
X6130952Y7988277D01*
X6178571Y7750181D02*
X6083333Y7797800D01*
X6083333Y7797800D02*
X5988095Y7893039D01*
X5988095Y7893039D02*
X5940476Y8083515D01*
X5940476Y8083515D02*
X5940476Y8416848D01*
X5940476Y8416848D02*
X5988095Y8607324D01*
X5988095Y8607324D02*
X6083333Y8702562D01*
X6083333Y8702562D02*
X6178571Y8750181D01*
X6178571Y8750181D02*
X6369047Y8750181D01*
X6369047Y8750181D02*
X6464285Y8702562D01*
X6464285Y8702562D02*
X6559523Y8607324D01*
X6559523Y8607324D02*
X6607142Y8416848D01*
X6607142Y8416848D02*
X6607142Y8083515D01*
X6607142Y8083515D02*
X6559523Y7893039D01*
X6559523Y7893039D02*
X6464285Y7797800D01*
X6464285Y7797800D02*
X6369047Y7750181D01*
X6369047Y7750181D02*
X6178571Y7750181D01*
X7511904Y8750181D02*
X7035714Y8750181D01*
X7035714Y8750181D02*
X6988095Y8273991D01*
X6988095Y8273991D02*
X7035714Y8321610D01*
X7035714Y8321610D02*
X7130952Y8369229D01*
X7130952Y8369229D02*
X7369047Y8369229D01*
X7369047Y8369229D02*
X7464285Y8321610D01*
X7464285Y8321610D02*
X7511904Y8273991D01*
X7511904Y8273991D02*
X7559523Y8178753D01*
X7559523Y8178753D02*
X7559523Y7940658D01*
X7559523Y7940658D02*
X7511904Y7845420D01*
X7511904Y7845420D02*
X7464285Y7797800D01*
X7464285Y7797800D02*
X7369047Y7750181D01*
X7369047Y7750181D02*
X7130952Y7750181D01*
X7130952Y7750181D02*
X7035714Y7797800D01*
X7035714Y7797800D02*
X6988095Y7845420D01*
X14883333Y15065420D02*
X14835714Y15017800D01*
X14835714Y15017800D02*
X14692857Y14970181D01*
X14692857Y14970181D02*
X14597619Y14970181D01*
X14597619Y14970181D02*
X14454762Y15017800D01*
X14454762Y15017800D02*
X14359524Y15113039D01*
X14359524Y15113039D02*
X14311905Y15208277D01*
X14311905Y15208277D02*
X14264286Y15398753D01*
X14264286Y15398753D02*
X14264286Y15541610D01*
X14264286Y15541610D02*
X14311905Y15732086D01*
X14311905Y15732086D02*
X14359524Y15827324D01*
X14359524Y15827324D02*
X14454762Y15922562D01*
X14454762Y15922562D02*
X14597619Y15970181D01*
X14597619Y15970181D02*
X14692857Y15970181D01*
X14692857Y15970181D02*
X14835714Y15922562D01*
X14835714Y15922562D02*
X14883333Y15874943D01*
X15788095Y15970181D02*
X15311905Y15970181D01*
X15311905Y15970181D02*
X15264286Y15493991D01*
X15264286Y15493991D02*
X15311905Y15541610D01*
X15311905Y15541610D02*
X15407143Y15589229D01*
X15407143Y15589229D02*
X15645238Y15589229D01*
X15645238Y15589229D02*
X15740476Y15541610D01*
X15740476Y15541610D02*
X15788095Y15493991D01*
X15788095Y15493991D02*
X15835714Y15398753D01*
X15835714Y15398753D02*
X15835714Y15160658D01*
X15835714Y15160658D02*
X15788095Y15065420D01*
X15788095Y15065420D02*
X15740476Y15017800D01*
X15740476Y15017800D02*
X15645238Y14970181D01*
X15645238Y14970181D02*
X15407143Y14970181D01*
X15407143Y14970181D02*
X15311905Y15017800D01*
X15311905Y15017800D02*
X15264286Y15065420D01*
X7644916Y5795181D02*
X7644916Y5080896D01*
X7644916Y5080896D02*
X7597297Y4938039D01*
X7597297Y4938039D02*
X7502059Y4842800D01*
X7502059Y4842800D02*
X7359202Y4795181D01*
X7359202Y4795181D02*
X7263964Y4795181D01*
X8644916Y4795181D02*
X8073488Y4795181D01*
X8359202Y4795181D02*
X8359202Y5795181D01*
X8359202Y5795181D02*
X8263964Y5652324D01*
X8263964Y5652324D02*
X8168726Y5557086D01*
X8168726Y5557086D02*
X8073488Y5509467D01*
X31788416Y5795181D02*
X31788416Y5080896D01*
X31788416Y5080896D02*
X31740797Y4938039D01*
X31740797Y4938039D02*
X31645559Y4842800D01*
X31645559Y4842800D02*
X31502702Y4795181D01*
X31502702Y4795181D02*
X31407464Y4795181D01*
X32216988Y5699943D02*
X32264607Y5747562D01*
X32264607Y5747562D02*
X32359845Y5795181D01*
X32359845Y5795181D02*
X32597940Y5795181D01*
X32597940Y5795181D02*
X32693178Y5747562D01*
X32693178Y5747562D02*
X32740797Y5699943D01*
X32740797Y5699943D02*
X32788416Y5604705D01*
X32788416Y5604705D02*
X32788416Y5509467D01*
X32788416Y5509467D02*
X32740797Y5366610D01*
X32740797Y5366610D02*
X32169369Y4795181D01*
X32169369Y4795181D02*
X32788416Y4795181D01*
X39454761Y19344943D02*
X39359523Y19392562D01*
X39359523Y19392562D02*
X39264285Y19487800D01*
X39264285Y19487800D02*
X39121428Y19630658D01*
X39121428Y19630658D02*
X39026190Y19678277D01*
X39026190Y19678277D02*
X38930952Y19678277D01*
X38978571Y19440181D02*
X38883333Y19487800D01*
X38883333Y19487800D02*
X38788095Y19583039D01*
X38788095Y19583039D02*
X38740476Y19773515D01*
X38740476Y19773515D02*
X38740476Y20106848D01*
X38740476Y20106848D02*
X38788095Y20297324D01*
X38788095Y20297324D02*
X38883333Y20392562D01*
X38883333Y20392562D02*
X38978571Y20440181D01*
X38978571Y20440181D02*
X39169047Y20440181D01*
X39169047Y20440181D02*
X39264285Y20392562D01*
X39264285Y20392562D02*
X39359523Y20297324D01*
X39359523Y20297324D02*
X39407142Y20106848D01*
X39407142Y20106848D02*
X39407142Y19773515D01*
X39407142Y19773515D02*
X39359523Y19583039D01*
X39359523Y19583039D02*
X39264285Y19487800D01*
X39264285Y19487800D02*
X39169047Y19440181D01*
X39169047Y19440181D02*
X38978571Y19440181D01*
X39788095Y20344943D02*
X39835714Y20392562D01*
X39835714Y20392562D02*
X39930952Y20440181D01*
X39930952Y20440181D02*
X40169047Y20440181D01*
X40169047Y20440181D02*
X40264285Y20392562D01*
X40264285Y20392562D02*
X40311904Y20344943D01*
X40311904Y20344943D02*
X40359523Y20249705D01*
X40359523Y20249705D02*
X40359523Y20154467D01*
X40359523Y20154467D02*
X40311904Y20011610D01*
X40311904Y20011610D02*
X39740476Y19440181D01*
X39740476Y19440181D02*
X40359523Y19440181D01*
X43383333Y12470181D02*
X43050000Y12946372D01*
X42811905Y12470181D02*
X42811905Y13470181D01*
X42811905Y13470181D02*
X43192857Y13470181D01*
X43192857Y13470181D02*
X43288095Y13422562D01*
X43288095Y13422562D02*
X43335714Y13374943D01*
X43335714Y13374943D02*
X43383333Y13279705D01*
X43383333Y13279705D02*
X43383333Y13136848D01*
X43383333Y13136848D02*
X43335714Y13041610D01*
X43335714Y13041610D02*
X43288095Y12993991D01*
X43288095Y12993991D02*
X43192857Y12946372D01*
X43192857Y12946372D02*
X42811905Y12946372D01*
X43954762Y13041610D02*
X43859524Y13089229D01*
X43859524Y13089229D02*
X43811905Y13136848D01*
X43811905Y13136848D02*
X43764286Y13232086D01*
X43764286Y13232086D02*
X43764286Y13279705D01*
X43764286Y13279705D02*
X43811905Y13374943D01*
X43811905Y13374943D02*
X43859524Y13422562D01*
X43859524Y13422562D02*
X43954762Y13470181D01*
X43954762Y13470181D02*
X44145238Y13470181D01*
X44145238Y13470181D02*
X44240476Y13422562D01*
X44240476Y13422562D02*
X44288095Y13374943D01*
X44288095Y13374943D02*
X44335714Y13279705D01*
X44335714Y13279705D02*
X44335714Y13232086D01*
X44335714Y13232086D02*
X44288095Y13136848D01*
X44288095Y13136848D02*
X44240476Y13089229D01*
X44240476Y13089229D02*
X44145238Y13041610D01*
X44145238Y13041610D02*
X43954762Y13041610D01*
X43954762Y13041610D02*
X43859524Y12993991D01*
X43859524Y12993991D02*
X43811905Y12946372D01*
X43811905Y12946372D02*
X43764286Y12851134D01*
X43764286Y12851134D02*
X43764286Y12660658D01*
X43764286Y12660658D02*
X43811905Y12565420D01*
X43811905Y12565420D02*
X43859524Y12517800D01*
X43859524Y12517800D02*
X43954762Y12470181D01*
X43954762Y12470181D02*
X44145238Y12470181D01*
X44145238Y12470181D02*
X44240476Y12517800D01*
X44240476Y12517800D02*
X44288095Y12565420D01*
X44288095Y12565420D02*
X44335714Y12660658D01*
X44335714Y12660658D02*
X44335714Y12851134D01*
X44335714Y12851134D02*
X44288095Y12946372D01*
X44288095Y12946372D02*
X44240476Y12993991D01*
X44240476Y12993991D02*
X44145238Y13041610D01*
X20883333Y30485420D02*
X20835714Y30437800D01*
X20835714Y30437800D02*
X20692857Y30390181D01*
X20692857Y30390181D02*
X20597619Y30390181D01*
X20597619Y30390181D02*
X20454762Y30437800D01*
X20454762Y30437800D02*
X20359524Y30533039D01*
X20359524Y30533039D02*
X20311905Y30628277D01*
X20311905Y30628277D02*
X20264286Y30818753D01*
X20264286Y30818753D02*
X20264286Y30961610D01*
X20264286Y30961610D02*
X20311905Y31152086D01*
X20311905Y31152086D02*
X20359524Y31247324D01*
X20359524Y31247324D02*
X20454762Y31342562D01*
X20454762Y31342562D02*
X20597619Y31390181D01*
X20597619Y31390181D02*
X20692857Y31390181D01*
X20692857Y31390181D02*
X20835714Y31342562D01*
X20835714Y31342562D02*
X20883333Y31294943D01*
X21264286Y31294943D02*
X21311905Y31342562D01*
X21311905Y31342562D02*
X21407143Y31390181D01*
X21407143Y31390181D02*
X21645238Y31390181D01*
X21645238Y31390181D02*
X21740476Y31342562D01*
X21740476Y31342562D02*
X21788095Y31294943D01*
X21788095Y31294943D02*
X21835714Y31199705D01*
X21835714Y31199705D02*
X21835714Y31104467D01*
X21835714Y31104467D02*
X21788095Y30961610D01*
X21788095Y30961610D02*
X21216667Y30390181D01*
X21216667Y30390181D02*
X21835714Y30390181D01*
X17559845Y12390181D02*
X17559845Y13390181D01*
X17559845Y13390181D02*
X17797940Y13390181D01*
X17797940Y13390181D02*
X17940797Y13342562D01*
X17940797Y13342562D02*
X18036035Y13247324D01*
X18036035Y13247324D02*
X18083654Y13152086D01*
X18083654Y13152086D02*
X18131273Y12961610D01*
X18131273Y12961610D02*
X18131273Y12818753D01*
X18131273Y12818753D02*
X18083654Y12628277D01*
X18083654Y12628277D02*
X18036035Y12533039D01*
X18036035Y12533039D02*
X17940797Y12437800D01*
X17940797Y12437800D02*
X17797940Y12390181D01*
X17797940Y12390181D02*
X17559845Y12390181D01*
X18512226Y13294943D02*
X18559845Y13342562D01*
X18559845Y13342562D02*
X18655083Y13390181D01*
X18655083Y13390181D02*
X18893178Y13390181D01*
X18893178Y13390181D02*
X18988416Y13342562D01*
X18988416Y13342562D02*
X19036035Y13294943D01*
X19036035Y13294943D02*
X19083654Y13199705D01*
X19083654Y13199705D02*
X19083654Y13104467D01*
X19083654Y13104467D02*
X19036035Y12961610D01*
X19036035Y12961610D02*
X18464607Y12390181D01*
X18464607Y12390181D02*
X19083654Y12390181D01*
X2233881Y2135182D02*
X2233881Y3135182D01*
X2233881Y2658992D02*
X2805309Y2658992D01*
X2805309Y2135182D02*
X2805309Y3135182D01*
X3186262Y3135182D02*
X3805309Y3135182D01*
X3805309Y3135182D02*
X3471976Y2754230D01*
X3471976Y2754230D02*
X3614833Y2754230D01*
X3614833Y2754230D02*
X3710071Y2706611D01*
X3710071Y2706611D02*
X3757690Y2658992D01*
X3757690Y2658992D02*
X3805309Y2563754D01*
X3805309Y2563754D02*
X3805309Y2325659D01*
X3805309Y2325659D02*
X3757690Y2230421D01*
X3757690Y2230421D02*
X3710071Y2182801D01*
X3710071Y2182801D02*
X3614833Y2135182D01*
X3614833Y2135182D02*
X3329119Y2135182D01*
X3329119Y2135182D02*
X3233881Y2182801D01*
X3233881Y2182801D02*
X3186262Y2230421D01*
X10307142Y21720181D02*
X9973809Y22196372D01*
X9735714Y21720181D02*
X9735714Y22720181D01*
X9735714Y22720181D02*
X10116666Y22720181D01*
X10116666Y22720181D02*
X10211904Y22672562D01*
X10211904Y22672562D02*
X10259523Y22624943D01*
X10259523Y22624943D02*
X10307142Y22529705D01*
X10307142Y22529705D02*
X10307142Y22386848D01*
X10307142Y22386848D02*
X10259523Y22291610D01*
X10259523Y22291610D02*
X10211904Y22243991D01*
X10211904Y22243991D02*
X10116666Y22196372D01*
X10116666Y22196372D02*
X9735714Y22196372D01*
X11259523Y21720181D02*
X10688095Y21720181D01*
X10973809Y21720181D02*
X10973809Y22720181D01*
X10973809Y22720181D02*
X10878571Y22577324D01*
X10878571Y22577324D02*
X10783333Y22482086D01*
X10783333Y22482086D02*
X10688095Y22434467D01*
X12116666Y22720181D02*
X11926190Y22720181D01*
X11926190Y22720181D02*
X11830952Y22672562D01*
X11830952Y22672562D02*
X11783333Y22624943D01*
X11783333Y22624943D02*
X11688095Y22482086D01*
X11688095Y22482086D02*
X11640476Y22291610D01*
X11640476Y22291610D02*
X11640476Y21910658D01*
X11640476Y21910658D02*
X11688095Y21815420D01*
X11688095Y21815420D02*
X11735714Y21767800D01*
X11735714Y21767800D02*
X11830952Y21720181D01*
X11830952Y21720181D02*
X12021428Y21720181D01*
X12021428Y21720181D02*
X12116666Y21767800D01*
X12116666Y21767800D02*
X12164285Y21815420D01*
X12164285Y21815420D02*
X12211904Y21910658D01*
X12211904Y21910658D02*
X12211904Y22148753D01*
X12211904Y22148753D02*
X12164285Y22243991D01*
X12164285Y22243991D02*
X12116666Y22291610D01*
X12116666Y22291610D02*
X12021428Y22339229D01*
X12021428Y22339229D02*
X11830952Y22339229D01*
X11830952Y22339229D02*
X11735714Y22291610D01*
X11735714Y22291610D02*
X11688095Y22243991D01*
X11688095Y22243991D02*
X11640476Y22148753D01*
X30383333Y14565420D02*
X30335714Y14517800D01*
X30335714Y14517800D02*
X30192857Y14470181D01*
X30192857Y14470181D02*
X30097619Y14470181D01*
X30097619Y14470181D02*
X29954762Y14517800D01*
X29954762Y14517800D02*
X29859524Y14613039D01*
X29859524Y14613039D02*
X29811905Y14708277D01*
X29811905Y14708277D02*
X29764286Y14898753D01*
X29764286Y14898753D02*
X29764286Y15041610D01*
X29764286Y15041610D02*
X29811905Y15232086D01*
X29811905Y15232086D02*
X29859524Y15327324D01*
X29859524Y15327324D02*
X29954762Y15422562D01*
X29954762Y15422562D02*
X30097619Y15470181D01*
X30097619Y15470181D02*
X30192857Y15470181D01*
X30192857Y15470181D02*
X30335714Y15422562D01*
X30335714Y15422562D02*
X30383333Y15374943D01*
X31240476Y15470181D02*
X31050000Y15470181D01*
X31050000Y15470181D02*
X30954762Y15422562D01*
X30954762Y15422562D02*
X30907143Y15374943D01*
X30907143Y15374943D02*
X30811905Y15232086D01*
X30811905Y15232086D02*
X30764286Y15041610D01*
X30764286Y15041610D02*
X30764286Y14660658D01*
X30764286Y14660658D02*
X30811905Y14565420D01*
X30811905Y14565420D02*
X30859524Y14517800D01*
X30859524Y14517800D02*
X30954762Y14470181D01*
X30954762Y14470181D02*
X31145238Y14470181D01*
X31145238Y14470181D02*
X31240476Y14517800D01*
X31240476Y14517800D02*
X31288095Y14565420D01*
X31288095Y14565420D02*
X31335714Y14660658D01*
X31335714Y14660658D02*
X31335714Y14898753D01*
X31335714Y14898753D02*
X31288095Y14993991D01*
X31288095Y14993991D02*
X31240476Y15041610D01*
X31240476Y15041610D02*
X31145238Y15089229D01*
X31145238Y15089229D02*
X30954762Y15089229D01*
X30954762Y15089229D02*
X30859524Y15041610D01*
X30859524Y15041610D02*
X30811905Y14993991D01*
X30811905Y14993991D02*
X30764286Y14898753D01*
X24383333Y14470181D02*
X24050000Y14946372D01*
X23811905Y14470181D02*
X23811905Y15470181D01*
X23811905Y15470181D02*
X24192857Y15470181D01*
X24192857Y15470181D02*
X24288095Y15422562D01*
X24288095Y15422562D02*
X24335714Y15374943D01*
X24335714Y15374943D02*
X24383333Y15279705D01*
X24383333Y15279705D02*
X24383333Y15136848D01*
X24383333Y15136848D02*
X24335714Y15041610D01*
X24335714Y15041610D02*
X24288095Y14993991D01*
X24288095Y14993991D02*
X24192857Y14946372D01*
X24192857Y14946372D02*
X23811905Y14946372D01*
X25288095Y15470181D02*
X24811905Y15470181D01*
X24811905Y15470181D02*
X24764286Y14993991D01*
X24764286Y14993991D02*
X24811905Y15041610D01*
X24811905Y15041610D02*
X24907143Y15089229D01*
X24907143Y15089229D02*
X25145238Y15089229D01*
X25145238Y15089229D02*
X25240476Y15041610D01*
X25240476Y15041610D02*
X25288095Y14993991D01*
X25288095Y14993991D02*
X25335714Y14898753D01*
X25335714Y14898753D02*
X25335714Y14660658D01*
X25335714Y14660658D02*
X25288095Y14565420D01*
X25288095Y14565420D02*
X25240476Y14517800D01*
X25240476Y14517800D02*
X25145238Y14470181D01*
X25145238Y14470181D02*
X24907143Y14470181D01*
X24907143Y14470181D02*
X24811905Y14517800D01*
X24811905Y14517800D02*
X24764286Y14565420D01*
X1826862Y58601413D02*
X1826862Y59601413D01*
X1826862Y59125223D02*
X2398290Y59125223D01*
X2398290Y58601413D02*
X2398290Y59601413D01*
X3303052Y59268080D02*
X3303052Y58601413D01*
X3064957Y59649032D02*
X2826862Y58934747D01*
X2826862Y58934747D02*
X3445909Y58934747D01*
X27283333Y14470181D02*
X26950000Y14946372D01*
X26711905Y14470181D02*
X26711905Y15470181D01*
X26711905Y15470181D02*
X27092857Y15470181D01*
X27092857Y15470181D02*
X27188095Y15422562D01*
X27188095Y15422562D02*
X27235714Y15374943D01*
X27235714Y15374943D02*
X27283333Y15279705D01*
X27283333Y15279705D02*
X27283333Y15136848D01*
X27283333Y15136848D02*
X27235714Y15041610D01*
X27235714Y15041610D02*
X27188095Y14993991D01*
X27188095Y14993991D02*
X27092857Y14946372D01*
X27092857Y14946372D02*
X26711905Y14946372D01*
X27616667Y15470181D02*
X28283333Y15470181D01*
X28283333Y15470181D02*
X27854762Y14470181D01*
X50040476Y2760181D02*
X50040476Y2045896D01*
X50040476Y2045896D02*
X49992857Y1903039D01*
X49992857Y1903039D02*
X49897619Y1807800D01*
X49897619Y1807800D02*
X49754762Y1760181D01*
X49754762Y1760181D02*
X49659524Y1760181D01*
X51040476Y1760181D02*
X50469048Y1760181D01*
X50754762Y1760181D02*
X50754762Y2760181D01*
X50754762Y2760181D02*
X50659524Y2617324D01*
X50659524Y2617324D02*
X50564286Y2522086D01*
X50564286Y2522086D02*
X50469048Y2474467D01*
X51421429Y2664943D02*
X51469048Y2712562D01*
X51469048Y2712562D02*
X51564286Y2760181D01*
X51564286Y2760181D02*
X51802381Y2760181D01*
X51802381Y2760181D02*
X51897619Y2712562D01*
X51897619Y2712562D02*
X51945238Y2664943D01*
X51945238Y2664943D02*
X51992857Y2569705D01*
X51992857Y2569705D02*
X51992857Y2474467D01*
X51992857Y2474467D02*
X51945238Y2331610D01*
X51945238Y2331610D02*
X51373810Y1760181D01*
X51373810Y1760181D02*
X51992857Y1760181D01*
X9907142Y32565420D02*
X9859523Y32517800D01*
X9859523Y32517800D02*
X9716666Y32470181D01*
X9716666Y32470181D02*
X9621428Y32470181D01*
X9621428Y32470181D02*
X9478571Y32517800D01*
X9478571Y32517800D02*
X9383333Y32613039D01*
X9383333Y32613039D02*
X9335714Y32708277D01*
X9335714Y32708277D02*
X9288095Y32898753D01*
X9288095Y32898753D02*
X9288095Y33041610D01*
X9288095Y33041610D02*
X9335714Y33232086D01*
X9335714Y33232086D02*
X9383333Y33327324D01*
X9383333Y33327324D02*
X9478571Y33422562D01*
X9478571Y33422562D02*
X9621428Y33470181D01*
X9621428Y33470181D02*
X9716666Y33470181D01*
X9716666Y33470181D02*
X9859523Y33422562D01*
X9859523Y33422562D02*
X9907142Y33374943D01*
X10859523Y32470181D02*
X10288095Y32470181D01*
X10573809Y32470181D02*
X10573809Y33470181D01*
X10573809Y33470181D02*
X10478571Y33327324D01*
X10478571Y33327324D02*
X10383333Y33232086D01*
X10383333Y33232086D02*
X10288095Y33184467D01*
X11478571Y33470181D02*
X11573809Y33470181D01*
X11573809Y33470181D02*
X11669047Y33422562D01*
X11669047Y33422562D02*
X11716666Y33374943D01*
X11716666Y33374943D02*
X11764285Y33279705D01*
X11764285Y33279705D02*
X11811904Y33089229D01*
X11811904Y33089229D02*
X11811904Y32851134D01*
X11811904Y32851134D02*
X11764285Y32660658D01*
X11764285Y32660658D02*
X11716666Y32565420D01*
X11716666Y32565420D02*
X11669047Y32517800D01*
X11669047Y32517800D02*
X11573809Y32470181D01*
X11573809Y32470181D02*
X11478571Y32470181D01*
X11478571Y32470181D02*
X11383333Y32517800D01*
X11383333Y32517800D02*
X11335714Y32565420D01*
X11335714Y32565420D02*
X11288095Y32660658D01*
X11288095Y32660658D02*
X11240476Y32851134D01*
X11240476Y32851134D02*
X11240476Y33089229D01*
X11240476Y33089229D02*
X11288095Y33279705D01*
X11288095Y33279705D02*
X11335714Y33374943D01*
X11335714Y33374943D02*
X11383333Y33422562D01*
X11383333Y33422562D02*
X11478571Y33470181D01*
X25283333Y23315420D02*
X25235714Y23267800D01*
X25235714Y23267800D02*
X25092857Y23220181D01*
X25092857Y23220181D02*
X24997619Y23220181D01*
X24997619Y23220181D02*
X24854762Y23267800D01*
X24854762Y23267800D02*
X24759524Y23363039D01*
X24759524Y23363039D02*
X24711905Y23458277D01*
X24711905Y23458277D02*
X24664286Y23648753D01*
X24664286Y23648753D02*
X24664286Y23791610D01*
X24664286Y23791610D02*
X24711905Y23982086D01*
X24711905Y23982086D02*
X24759524Y24077324D01*
X24759524Y24077324D02*
X24854762Y24172562D01*
X24854762Y24172562D02*
X24997619Y24220181D01*
X24997619Y24220181D02*
X25092857Y24220181D01*
X25092857Y24220181D02*
X25235714Y24172562D01*
X25235714Y24172562D02*
X25283333Y24124943D01*
X26140476Y23886848D02*
X26140476Y23220181D01*
X25902381Y24267800D02*
X25664286Y23553515D01*
X25664286Y23553515D02*
X26283333Y23553515D01*
X46407142Y33220181D02*
X46073809Y33696372D01*
X45835714Y33220181D02*
X45835714Y34220181D01*
X45835714Y34220181D02*
X46216666Y34220181D01*
X46216666Y34220181D02*
X46311904Y34172562D01*
X46311904Y34172562D02*
X46359523Y34124943D01*
X46359523Y34124943D02*
X46407142Y34029705D01*
X46407142Y34029705D02*
X46407142Y33886848D01*
X46407142Y33886848D02*
X46359523Y33791610D01*
X46359523Y33791610D02*
X46311904Y33743991D01*
X46311904Y33743991D02*
X46216666Y33696372D01*
X46216666Y33696372D02*
X45835714Y33696372D01*
X47359523Y33220181D02*
X46788095Y33220181D01*
X47073809Y33220181D02*
X47073809Y34220181D01*
X47073809Y34220181D02*
X46978571Y34077324D01*
X46978571Y34077324D02*
X46883333Y33982086D01*
X46883333Y33982086D02*
X46788095Y33934467D01*
X47692857Y34220181D02*
X48359523Y34220181D01*
X48359523Y34220181D02*
X47930952Y33220181D01*
X12883333Y25720181D02*
X12550000Y26196372D01*
X12311905Y25720181D02*
X12311905Y26720181D01*
X12311905Y26720181D02*
X12692857Y26720181D01*
X12692857Y26720181D02*
X12788095Y26672562D01*
X12788095Y26672562D02*
X12835714Y26624943D01*
X12835714Y26624943D02*
X12883333Y26529705D01*
X12883333Y26529705D02*
X12883333Y26386848D01*
X12883333Y26386848D02*
X12835714Y26291610D01*
X12835714Y26291610D02*
X12788095Y26243991D01*
X12788095Y26243991D02*
X12692857Y26196372D01*
X12692857Y26196372D02*
X12311905Y26196372D01*
X13740476Y26386848D02*
X13740476Y25720181D01*
X13502381Y26767800D02*
X13264286Y26053515D01*
X13264286Y26053515D02*
X13883333Y26053515D01*
X46407142Y18470181D02*
X46073809Y18946372D01*
X45835714Y18470181D02*
X45835714Y19470181D01*
X45835714Y19470181D02*
X46216666Y19470181D01*
X46216666Y19470181D02*
X46311904Y19422562D01*
X46311904Y19422562D02*
X46359523Y19374943D01*
X46359523Y19374943D02*
X46407142Y19279705D01*
X46407142Y19279705D02*
X46407142Y19136848D01*
X46407142Y19136848D02*
X46359523Y19041610D01*
X46359523Y19041610D02*
X46311904Y18993991D01*
X46311904Y18993991D02*
X46216666Y18946372D01*
X46216666Y18946372D02*
X45835714Y18946372D01*
X47359523Y18470181D02*
X46788095Y18470181D01*
X47073809Y18470181D02*
X47073809Y19470181D01*
X47073809Y19470181D02*
X46978571Y19327324D01*
X46978571Y19327324D02*
X46883333Y19232086D01*
X46883333Y19232086D02*
X46788095Y19184467D01*
X47692857Y19470181D02*
X48311904Y19470181D01*
X48311904Y19470181D02*
X47978571Y19089229D01*
X47978571Y19089229D02*
X48121428Y19089229D01*
X48121428Y19089229D02*
X48216666Y19041610D01*
X48216666Y19041610D02*
X48264285Y18993991D01*
X48264285Y18993991D02*
X48311904Y18898753D01*
X48311904Y18898753D02*
X48311904Y18660658D01*
X48311904Y18660658D02*
X48264285Y18565420D01*
X48264285Y18565420D02*
X48216666Y18517800D01*
X48216666Y18517800D02*
X48121428Y18470181D01*
X48121428Y18470181D02*
X47835714Y18470181D01*
X47835714Y18470181D02*
X47740476Y18517800D01*
X47740476Y18517800D02*
X47692857Y18565420D01*
X34846862Y6531413D02*
X34846862Y7531413D01*
X34846862Y7055223D02*
X35418290Y7055223D01*
X35418290Y6531413D02*
X35418290Y7531413D01*
X35846862Y7436175D02*
X35894481Y7483794D01*
X35894481Y7483794D02*
X35989719Y7531413D01*
X35989719Y7531413D02*
X36227814Y7531413D01*
X36227814Y7531413D02*
X36323052Y7483794D01*
X36323052Y7483794D02*
X36370671Y7436175D01*
X36370671Y7436175D02*
X36418290Y7340937D01*
X36418290Y7340937D02*
X36418290Y7245699D01*
X36418290Y7245699D02*
X36370671Y7102842D01*
X36370671Y7102842D02*
X35799243Y6531413D01*
X35799243Y6531413D02*
X36418290Y6531413D01*
%TO.C,Q3*%
D11*
X38790000Y24610000D02*
X40310000Y24610000D01*
X38790000Y24560000D02*
X38790000Y24610000D01*
X38790000Y22660000D02*
X38790000Y23440000D01*
X38790000Y21490000D02*
X38790000Y21540000D01*
X40310000Y24610000D02*
X40310000Y23610000D01*
X40310000Y22490000D02*
X40310000Y21490000D01*
X40310000Y21490000D02*
X38790000Y21490000D01*
X38250000Y23430000D02*
X38490000Y23100000D01*
X38010000Y23100000D01*
X38250000Y23430000D01*
G36*
X38490000Y23100000D02*
G01*
X38010000Y23100000D01*
X38250000Y23430000D01*
X38490000Y23100000D01*
G37*
%TO.C,R11*%
X43312742Y29572500D02*
X43787258Y29572500D01*
X43312742Y28527500D02*
X43787258Y28527500D01*
%TO.C,C8*%
X34140000Y17338748D02*
X34140000Y18761252D01*
X35960000Y17338748D02*
X35960000Y18761252D01*
%TO.C,C3*%
X25409420Y29060000D02*
X25690580Y29060000D01*
X25409420Y28040000D02*
X25690580Y28040000D01*
%TO.C,J3*%
X965000Y48490000D02*
X965000Y44610000D01*
X2935000Y49660000D02*
X5435000Y49660000D01*
X2935000Y43440000D02*
X5435000Y43440000D01*
X5435000Y49660000D02*
X5435000Y48610000D01*
X5435000Y48610000D02*
X6425000Y48610000D01*
X5435000Y43440000D02*
X5435000Y44490000D01*
%TO.C,U1*%
D10*
X17975000Y24625000D02*
X22125000Y24625000D01*
X17975000Y19475000D02*
X22125000Y19475000D01*
D11*
X17550000Y24550000D02*
X17310000Y24880000D01*
X17790000Y24880000D01*
X17550000Y24550000D01*
G36*
X17550000Y24550000D02*
G01*
X17310000Y24880000D01*
X17790000Y24880000D01*
X17550000Y24550000D01*
G37*
%TO.C,R3*%
X12527500Y19812742D02*
X12527500Y20287258D01*
X13572500Y19812742D02*
X13572500Y20287258D01*
%TO.C,J11*%
X1210000Y19210000D02*
X2590000Y19210000D01*
X1210000Y17830000D02*
X1210000Y19210000D01*
X1210000Y16560000D02*
X1210000Y3750000D01*
X1210000Y16560000D02*
X3970000Y16560000D01*
X1210000Y3750000D02*
X3970000Y3750000D01*
X3970000Y16560000D02*
X3970000Y3750000D01*
%TO.C,D1*%
X22540000Y28200000D02*
X22540000Y24900000D01*
X22540000Y28200000D02*
X28050000Y28200000D01*
X22540000Y24900000D02*
X28050000Y24900000D01*
%TO.C,R14*%
X46812742Y23572500D02*
X47287258Y23572500D01*
X46812742Y22527500D02*
X47287258Y22527500D01*
%TO.C,R15*%
X46812742Y29572500D02*
X47287258Y29572500D01*
X46812742Y28527500D02*
X47287258Y28527500D01*
%TO.C,R18*%
X46812742Y38572500D02*
X47287258Y38572500D01*
X46812742Y37527500D02*
X47287258Y37527500D01*
%TO.C,C9*%
X34140000Y25338748D02*
X34140000Y26761252D01*
X35960000Y25338748D02*
X35960000Y26761252D01*
%TO.C,R6*%
X22027500Y17787258D02*
X22027500Y17312742D01*
X23072500Y17787258D02*
X23072500Y17312742D01*
%TO.C,R19*%
X46812742Y41072500D02*
X47287258Y41072500D01*
X46812742Y40027500D02*
X47287258Y40027500D01*
%TO.C,J13*%
X49470000Y28240000D02*
X49470000Y51210000D01*
X52230000Y51210000D02*
X49470000Y51210000D01*
X52230000Y28240000D02*
X49470000Y28240000D01*
X52230000Y28240000D02*
X52230000Y51210000D01*
X52230000Y26970000D02*
X52230000Y25590000D01*
X52230000Y25590000D02*
X50850000Y25590000D01*
%TO.C,Q4*%
X38790000Y30610000D02*
X40310000Y30610000D01*
X38790000Y30560000D02*
X38790000Y30610000D01*
X38790000Y28660000D02*
X38790000Y29440000D01*
X38790000Y27490000D02*
X38790000Y27540000D01*
X40310000Y30610000D02*
X40310000Y29610000D01*
X40310000Y28490000D02*
X40310000Y27490000D01*
X40310000Y27490000D02*
X38790000Y27490000D01*
X38250000Y29430000D02*
X38490000Y29100000D01*
X38010000Y29100000D01*
X38250000Y29430000D01*
G36*
X38490000Y29100000D02*
G01*
X38010000Y29100000D01*
X38250000Y29430000D01*
X38490000Y29100000D01*
G37*
%TO.C,R10*%
X43312742Y23572500D02*
X43787258Y23572500D01*
X43312742Y22527500D02*
X43787258Y22527500D01*
%TO.C,R1*%
X5340000Y17372936D02*
X5340000Y21727064D01*
X8760000Y17372936D02*
X8760000Y21727064D01*
%TO.C,Q1*%
X38790000Y12610000D02*
X40310000Y12610000D01*
X38790000Y12560000D02*
X38790000Y12610000D01*
X38790000Y10660000D02*
X38790000Y11440000D01*
X38790000Y9490000D02*
X38790000Y9540000D01*
X40310000Y12610000D02*
X40310000Y11610000D01*
X40310000Y10490000D02*
X40310000Y9490000D01*
X40310000Y9490000D02*
X38790000Y9490000D01*
X38250000Y11430000D02*
X38490000Y11100000D01*
X38010000Y11100000D01*
X38250000Y11430000D01*
G36*
X38490000Y11100000D02*
G01*
X38010000Y11100000D01*
X38250000Y11430000D01*
X38490000Y11100000D01*
G37*
%TO.C,J4*%
X38440000Y3965000D02*
X38440000Y1465000D01*
X38440000Y1465000D02*
X39490000Y1465000D01*
X43490000Y5935000D02*
X39610000Y5935000D01*
X43610000Y1465000D02*
X43610000Y475000D01*
X44660000Y3965000D02*
X44660000Y1465000D01*
X44660000Y1465000D02*
X43610000Y1465000D01*
%TO.C,D3*%
D10*
X42000000Y38525000D02*
G75*
G02*
X41800000Y38525000I-100000J0D01*
G01*
X41800000Y38525000D02*
G75*
G02*
X42000000Y38525000I100000J0D01*
G01*
%TO.C,L1*%
D11*
X28850000Y25250000D02*
X35250000Y25250000D01*
X28850000Y18850000D02*
X35250000Y18850000D01*
%TO.C,C7*%
X28040000Y17690580D02*
X28040000Y17409420D01*
X29060000Y17690580D02*
X29060000Y17409420D01*
%TO.C,C1*%
X14640000Y26838748D02*
X14640000Y28261252D01*
X16460000Y26838748D02*
X16460000Y28261252D01*
%TO.C,R12*%
X46812742Y11572500D02*
X47287258Y11572500D01*
X46812742Y10527500D02*
X47287258Y10527500D01*
%TO.C,R2*%
X19312742Y11072500D02*
X19787258Y11072500D01*
X19312742Y10027500D02*
X19787258Y10027500D01*
%TO.C,R9*%
X43312742Y17572500D02*
X43787258Y17572500D01*
X43312742Y16527500D02*
X43787258Y16527500D01*
%TO.C,U2*%
X6940000Y28660000D02*
X10160000Y28660000D01*
X6940000Y28485000D02*
X6940000Y28660000D01*
X6940000Y25440000D02*
X6940000Y25615000D01*
X10160000Y28660000D02*
X10160000Y28485000D01*
X10160000Y25615000D02*
X10160000Y25440000D01*
X10160000Y25440000D02*
X6940000Y25440000D01*
X6390000Y28490000D02*
X6150000Y28820000D01*
X6630000Y28820000D01*
X6390000Y28490000D01*
G36*
X6390000Y28490000D02*
G01*
X6150000Y28820000D01*
X6630000Y28820000D01*
X6390000Y28490000D01*
G37*
%TO.C,J5*%
X28670000Y56430000D02*
X30050000Y56430000D01*
X28670000Y55050000D02*
X28670000Y56430000D01*
X28670000Y53780000D02*
X28670000Y40970000D01*
X28670000Y53780000D02*
X31430000Y53780000D01*
X28670000Y40970000D02*
X31430000Y40970000D01*
X31430000Y53780000D02*
X31430000Y40970000D01*
%TO.C,J10*%
X1210000Y42070000D02*
X2590000Y42070000D01*
X1210000Y40690000D02*
X1210000Y42070000D01*
X1210000Y39420000D02*
X1210000Y21530000D01*
X1210000Y39420000D02*
X3970000Y39420000D01*
X1210000Y21530000D02*
X3970000Y21530000D01*
X3970000Y39420000D02*
X3970000Y21530000D01*
%TO.C,Q5*%
X6490000Y14610000D02*
X10610000Y14610000D01*
X6490000Y14515000D02*
X6490000Y14610000D01*
X6490000Y9490000D02*
X6490000Y9585000D01*
X10610000Y14610000D02*
X10610000Y14515000D01*
X10610000Y9585000D02*
X10610000Y9490000D01*
X10610000Y9490000D02*
X6490000Y9490000D01*
X5950000Y14520000D02*
X5710000Y14850000D01*
X6190000Y14850000D01*
X5950000Y14520000D01*
G36*
X5950000Y14520000D02*
G01*
X5710000Y14850000D01*
X6190000Y14850000D01*
X5950000Y14520000D01*
G37*
%TO.C,C5*%
X14909420Y14060000D02*
X15190580Y14060000D01*
X14909420Y13040000D02*
X15190580Y13040000D01*
%TO.C,J1*%
X9550000Y1450000D02*
X9550000Y9050000D01*
X19550000Y9050000D02*
X9550000Y9050000D01*
X19550000Y1450000D02*
X9550000Y1450000D01*
X19550000Y1450000D02*
X19550000Y9050000D01*
%TO.C,J2*%
X20550000Y1450000D02*
X20550000Y9050000D01*
X30550000Y9050000D02*
X20550000Y9050000D01*
X30550000Y1450000D02*
X20550000Y1450000D01*
X30550000Y1450000D02*
X30550000Y9050000D01*
%TO.C,Q2*%
X38790000Y18610000D02*
X40310000Y18610000D01*
X38790000Y18560000D02*
X38790000Y18610000D01*
X38790000Y16660000D02*
X38790000Y17440000D01*
X38790000Y15490000D02*
X38790000Y15540000D01*
X40310000Y18610000D02*
X40310000Y17610000D01*
X40310000Y16490000D02*
X40310000Y15490000D01*
X40310000Y15490000D02*
X38790000Y15490000D01*
X38250000Y17430000D02*
X38490000Y17100000D01*
X38010000Y17100000D01*
X38250000Y17430000D01*
G36*
X38490000Y17100000D02*
G01*
X38010000Y17100000D01*
X38250000Y17430000D01*
X38490000Y17100000D01*
G37*
%TO.C,R8*%
X43312742Y11572500D02*
X43787258Y11572500D01*
X43312742Y10527500D02*
X43787258Y10527500D01*
%TO.C,C2*%
X20338748Y29460000D02*
X21761252Y29460000D01*
X20338748Y27640000D02*
X21761252Y27640000D01*
%TO.C,D2*%
X12190000Y11550000D02*
X12190000Y9550000D01*
X12190000Y11550000D02*
X16200000Y11550000D01*
X12190000Y9550000D02*
X16200000Y9550000D01*
%TO.C,R16*%
X9812742Y24572500D02*
X10287258Y24572500D01*
X9812742Y23527500D02*
X10287258Y23527500D01*
%TO.C,C6*%
X30040000Y17409420D02*
X30040000Y17690580D01*
X31060000Y17409420D02*
X31060000Y17690580D01*
%TO.C,R5*%
X24027500Y17312742D02*
X24027500Y17787258D01*
X25072500Y17312742D02*
X25072500Y17787258D01*
%TO.C,R7*%
X26027500Y17787258D02*
X26027500Y17312742D01*
X27072500Y17787258D02*
X27072500Y17312742D01*
%TO.C,J12*%
X49470000Y6400000D02*
X49470000Y24290000D01*
X52230000Y24290000D02*
X49470000Y24290000D01*
X52230000Y6400000D02*
X49470000Y6400000D01*
X52230000Y6400000D02*
X52230000Y24290000D01*
X52230000Y5130000D02*
X52230000Y3750000D01*
X52230000Y3750000D02*
X50850000Y3750000D01*
%TO.C,C10*%
X10409420Y31560000D02*
X10690580Y31560000D01*
X10409420Y30540000D02*
X10690580Y30540000D01*
%TO.C,C4*%
X19909420Y27060000D02*
X20190580Y27060000D01*
X19909420Y26040000D02*
X20190580Y26040000D01*
%TO.C,R17*%
X46812742Y36072500D02*
X47287258Y36072500D01*
X46812742Y35027500D02*
X47287258Y35027500D01*
%TO.C,R4*%
X12527500Y23312742D02*
X12527500Y23787258D01*
X13572500Y23312742D02*
X13572500Y23787258D01*
%TO.C,R13*%
X46812742Y17572500D02*
X47287258Y17572500D01*
X46812742Y16527500D02*
X47287258Y16527500D01*
%TD*%
M02*
